<?xml version="1.0" encoding="UTF-8" standalone="no"?>
<!DOCTYPE svg PUBLIC "-//W3C//DTD SVG 1.1//EN"
 "http://www.w3.org/Graphics/SVG/1.1/DTD/svg11.dtd">
<!-- Generated by graphviz version 2.47.0 (20210316.0004)
 -->
<!-- Title: dependencies Pages: 1 -->
<svg width="1212pt" height="211pt"
 viewBox="0.00 0.00 1212.00 211.00" xmlns="http://www.w3.org/2000/svg" xmlns:xlink="http://www.w3.org/1999/xlink">
<g id="graph0" class="graph" transform="scale(1 1) rotate(0) translate(4 207)">
<title>dependencies</title>
<polygon fill="white" stroke="transparent" points="-4,4 -4,-207 1208,-207 1208,4 -4,4"/>
<text text-anchor="start" x="581.01" y="-42.4" font-family="Times-12" font-weight="bold" font-size="14.00">Legend</text>
<polygon fill="#ffffb3" stroke="transparent" points="368,-10 368,-30 388,-30 388,-10 368,-10"/>
<text text-anchor="start" x="391.63" y="-15.4" font-family="Times-12" font-size="14.00"> &#160;Declarations</text>
<polygon fill="#8dd3c7" stroke="transparent" points="481,-10 481,-30 501,-30 501,-10 481,-10"/>
<text text-anchor="start" x="504.73" y="-15.4" font-family="Times-12" font-size="14.00"> &#160;Module</text>
<polygon fill="#80b1d3" stroke="transparent" points="567,-10 567,-30 587,-30 587,-10 567,-10"/>
<text text-anchor="start" x="590.78" y="-15.4" font-family="Times-12" font-size="14.00"> &#160;Bootstrap</text>
<polygon fill="#fdb462" stroke="transparent" points="664,-10 664,-30 684,-30 684,-10 664,-10"/>
<text text-anchor="start" x="687.67" y="-15.4" font-family="Times-12" font-size="14.00"> &#160;Providers</text>
<polygon fill="#fb8072" stroke="transparent" points="760,-10 760,-30 780,-30 780,-10 760,-10"/>
<text text-anchor="start" x="783.73" y="-15.4" font-family="Times-12" font-size="14.00"> &#160;Exports</text>
<g id="clust1" class="cluster">
<title>cluster_PdfModule</title>
<polygon fill="none" stroke="black" stroke-dasharray="1,5" points="8,-70 8,-195 1196,-195 1196,-70 8,-70"/>
</g>
<g id="clust3" class="cluster">
<title>cluster_PdfModule_imports</title>
<polygon fill="none" stroke="black" points="418,-78 418,-130 1188,-130 1188,-78 418,-78"/>
</g>
<g id="clust6" class="cluster">
<title>cluster_PdfModule_providers</title>
<polygon fill="none" stroke="black" points="16,-78 16,-130 410,-130 410,-78 16,-78"/>
</g>
<!-- CwDeviceOwnersModule -->
<g id="node1" class="node">
<title>CwDeviceOwnersModule</title>
<polygon fill="#8dd3c7" stroke="black" points="1180.17,-122 1177.17,-126 1156.17,-126 1153.17,-122 1017.83,-122 1017.83,-86 1180.17,-86 1180.17,-122"/>
<text text-anchor="middle" x="1099" y="-99.8" font-family="Times,serif" font-size="14.00">CwDeviceOwnersModule</text>
</g>
<!-- PdfModule -->
<g id="node6" class="node">
<title>PdfModule</title>
<polygon fill="#8dd3c7" stroke="black" points="546.49,-187 543.49,-191 522.49,-191 519.49,-187 467.51,-187 467.51,-151 546.49,-151 546.49,-187"/>
<text text-anchor="middle" x="507" y="-164.8" font-family="Times,serif" font-size="14.00">PdfModule</text>
</g>
<!-- CwDeviceOwnersModule&#45;&gt;PdfModule -->
<g id="edge1" class="edge">
<title>CwDeviceOwnersModule&#45;&gt;PdfModule</title>
<path fill="none" stroke="black" d="M1099,-122.01C1099,-144.49 1099,-180 1099,-180 1099,-180 556.76,-180 556.76,-180"/>
<polygon fill="black" stroke="black" points="556.76,-176.5 546.76,-180 556.76,-183.5 556.76,-176.5"/>
</g>
<!-- CwDeviceTypeModule -->
<g id="node2" class="node">
<title>CwDeviceTypeModule</title>
<polygon fill="#8dd3c7" stroke="black" points="999.9,-122 996.9,-126 975.9,-126 972.9,-122 852.1,-122 852.1,-86 999.9,-86 999.9,-122"/>
<text text-anchor="middle" x="926" y="-99.8" font-family="Times,serif" font-size="14.00">CwDeviceTypeModule</text>
</g>
<!-- CwDeviceTypeModule&#45;&gt;PdfModule -->
<g id="edge2" class="edge">
<title>CwDeviceTypeModule&#45;&gt;PdfModule</title>
<path fill="none" stroke="black" d="M926,-122.13C926,-142.57 926,-173 926,-173 926,-173 556.8,-173 556.8,-173"/>
<polygon fill="black" stroke="black" points="556.8,-169.5 546.8,-173 556.8,-176.5 556.8,-169.5"/>
</g>
<!-- CwDevicesModule -->
<g id="node3" class="node">
<title>CwDevicesModule</title>
<polygon fill="#8dd3c7" stroke="black" points="834.08,-122 831.08,-126 810.08,-126 807.08,-122 709.92,-122 709.92,-86 834.08,-86 834.08,-122"/>
<text text-anchor="middle" x="772" y="-99.8" font-family="Times,serif" font-size="14.00">CwDevicesModule</text>
</g>
<!-- CwDevicesModule&#45;&gt;PdfModule -->
<g id="edge3" class="edge">
<title>CwDevicesModule&#45;&gt;PdfModule</title>
<path fill="none" stroke="black" d="M772,-122.27C772,-140.56 772,-166 772,-166 772,-166 556.67,-166 556.67,-166"/>
<polygon fill="black" stroke="black" points="556.67,-162.5 546.67,-166 556.67,-169.5 556.67,-162.5"/>
</g>
<!-- DataModule -->
<g id="node4" class="node">
<title>DataModule</title>
<polygon fill="#8dd3c7" stroke="black" points="691.98,-122 688.98,-126 667.98,-126 664.98,-122 606.02,-122 606.02,-86 691.98,-86 691.98,-122"/>
<text text-anchor="middle" x="649" y="-99.8" font-family="Times,serif" font-size="14.00">DataModule</text>
</g>
<!-- DataModule&#45;&gt;PdfModule -->
<g id="edge4" class="edge">
<title>DataModule&#45;&gt;PdfModule</title>
<path fill="none" stroke="black" d="M649,-122.01C649,-138.05 649,-159 649,-159 649,-159 556.55,-159 556.55,-159"/>
<polygon fill="black" stroke="black" points="556.55,-155.5 546.55,-159 556.55,-162.5 556.55,-155.5"/>
</g>
<!-- ReportsTemplatesModule -->
<g id="node5" class="node">
<title>ReportsTemplatesModule</title>
<polygon fill="#8dd3c7" stroke="black" points="587.91,-122 584.91,-126 563.91,-126 560.91,-122 426.09,-122 426.09,-86 587.91,-86 587.91,-122"/>
<text text-anchor="middle" x="507" y="-99.8" font-family="Times,serif" font-size="14.00">ReportsTemplatesModule</text>
</g>
<!-- ReportsTemplatesModule&#45;&gt;PdfModule -->
<g id="edge5" class="edge">
<title>ReportsTemplatesModule&#45;&gt;PdfModule</title>
<path fill="none" stroke="black" d="M507,-122.11C507,-122.11 507,-140.99 507,-140.99"/>
<polygon fill="black" stroke="black" points="503.5,-140.99 507,-150.99 510.5,-140.99 503.5,-140.99"/>
</g>
<!-- AuthService -->
<g id="node7" class="node">
<title>AuthService</title>
<ellipse fill="#fdb462" stroke="black" cx="343" cy="-104" rx="59.11" ry="18"/>
<text text-anchor="middle" x="343" y="-99.8" font-family="Times,serif" font-size="14.00">AuthService</text>
</g>
<!-- AuthService&#45;&gt;PdfModule -->
<g id="edge6" class="edge">
<title>AuthService&#45;&gt;PdfModule</title>
<path fill="none" stroke="black" d="M343,-122.01C343,-138.05 343,-159 343,-159 343,-159 457.3,-159 457.3,-159"/>
<polygon fill="black" stroke="black" points="457.3,-162.5 467.3,-159 457.3,-155.5 457.3,-162.5"/>
</g>
<!-- DataService -->
<g id="node8" class="node">
<title>DataService</title>
<ellipse fill="#fdb462" stroke="black" cx="207" cy="-104" rx="58.44" ry="18"/>
<text text-anchor="middle" x="207" y="-99.8" font-family="Times,serif" font-size="14.00">DataService</text>
</g>
<!-- DataService&#45;&gt;PdfModule -->
<g id="edge7" class="edge">
<title>DataService&#45;&gt;PdfModule</title>
<path fill="none" stroke="black" d="M187.59,-121.06C187.59,-141.49 187.59,-173 187.59,-173 187.59,-173 457.19,-173 457.19,-173"/>
<polygon fill="black" stroke="black" points="457.19,-176.5 467.19,-173 457.19,-169.5 457.19,-176.5"/>
</g>
<!-- DataService&#45;&gt;PdfModule -->
<g id="edge8" class="edge">
<title>DataService&#45;&gt;PdfModule</title>
<path fill="none" stroke="black" d="M226.41,-121.27C226.41,-139.62 226.41,-166 226.41,-166 226.41,-166 457.39,-166 457.39,-166"/>
<polygon fill="black" stroke="black" points="457.39,-169.5 467.39,-166 457.39,-162.5 457.39,-169.5"/>
</g>
<!-- PdfService -->
<g id="node9" class="node">
<title>PdfService</title>
<ellipse fill="#fdb462" stroke="black" cx="77" cy="-104" rx="53.31" ry="18"/>
<text text-anchor="middle" x="77" y="-99.8" font-family="Times,serif" font-size="14.00">PdfService</text>
</g>
<!-- PdfService&#45;&gt;PdfModule -->
<g id="edge9" class="edge">
<title>PdfService&#45;&gt;PdfModule</title>
<path fill="none" stroke="black" d="M77,-122.01C77,-144.49 77,-180 77,-180 77,-180 457.32,-180 457.32,-180"/>
<polygon fill="black" stroke="black" points="457.32,-183.5 467.32,-180 457.32,-176.5 457.32,-183.5"/>
</g>
</g>
</svg>
