<?xml version="1.0" encoding="UTF-8" standalone="no"?>
<!DOCTYPE svg PUBLIC "-//W3C//DTD SVG 1.1//EN"
 "http://www.w3.org/Graphics/SVG/1.1/DTD/svg11.dtd">
<!-- Generated by graphviz version 2.47.0 (20210316.0004)
 -->
<!-- Title: dependencies Pages: 1 -->
<svg width="1780pt" height="211pt"
 viewBox="0.00 0.00 1780.00 211.00" xmlns="http://www.w3.org/2000/svg" xmlns:xlink="http://www.w3.org/1999/xlink">
<g id="graph0" class="graph" transform="scale(1 1) rotate(0) translate(4 207)">
<title>dependencies</title>
<polygon fill="white" stroke="transparent" points="-4,4 -4,-207 1776,-207 1776,4 -4,4"/>
<text text-anchor="start" x="865.01" y="-42.4" font-family="Times-12" font-weight="bold" font-size="14.00">Legend</text>
<polygon fill="#ffffb3" stroke="transparent" points="652,-10 652,-30 672,-30 672,-10 652,-10"/>
<text text-anchor="start" x="675.63" y="-15.4" font-family="Times-12" font-size="14.00"> &#160;Declarations</text>
<polygon fill="#8dd3c7" stroke="transparent" points="765,-10 765,-30 785,-30 785,-10 765,-10"/>
<text text-anchor="start" x="788.73" y="-15.4" font-family="Times-12" font-size="14.00"> &#160;Module</text>
<polygon fill="#80b1d3" stroke="transparent" points="851,-10 851,-30 871,-30 871,-10 851,-10"/>
<text text-anchor="start" x="874.78" y="-15.4" font-family="Times-12" font-size="14.00"> &#160;Bootstrap</text>
<polygon fill="#fdb462" stroke="transparent" points="948,-10 948,-30 968,-30 968,-10 948,-10"/>
<text text-anchor="start" x="971.67" y="-15.4" font-family="Times-12" font-size="14.00"> &#160;Providers</text>
<polygon fill="#fb8072" stroke="transparent" points="1044,-10 1044,-30 1064,-30 1064,-10 1044,-10"/>
<text text-anchor="start" x="1067.73" y="-15.4" font-family="Times-12" font-size="14.00"> &#160;Exports</text>
<g id="clust1" class="cluster">
<title>cluster_DataModule</title>
<polygon fill="none" stroke="black" stroke-dasharray="1,5" points="8,-70 8,-195 1764,-195 1764,-70 8,-70"/>
</g>
<g id="clust6" class="cluster">
<title>cluster_DataModule_providers</title>
<polygon fill="none" stroke="black" points="16,-78 16,-130 1756,-130 1756,-78 16,-78"/>
</g>
<!-- CwDeviceOwnersService -->
<g id="node1" class="node">
<title>CwDeviceOwnersService</title>
<ellipse fill="#fdb462" stroke="black" cx="1637" cy="-104" rx="110.55" ry="18"/>
<text text-anchor="middle" x="1637" y="-99.8" font-family="Times,serif" font-size="14.00">CwDeviceOwnersService</text>
</g>
<!-- DataModule -->
<g id="node10" class="node">
<title>DataModule</title>
<polygon fill="#8dd3c7" stroke="black" points="925.98,-187 922.98,-191 901.98,-191 898.98,-187 840.02,-187 840.02,-151 925.98,-151 925.98,-187"/>
<text text-anchor="middle" x="883" y="-164.8" font-family="Times,serif" font-size="14.00">DataModule</text>
</g>
<!-- CwDeviceOwnersService&#45;&gt;DataModule -->
<g id="edge1" class="edge">
<title>CwDeviceOwnersService&#45;&gt;DataModule</title>
<path fill="none" stroke="black" d="M1637,-122.01C1637,-144.49 1637,-180 1637,-180 1637,-180 936.25,-180 936.25,-180"/>
<polygon fill="black" stroke="black" points="936.25,-176.5 926.25,-180 936.25,-183.5 936.25,-176.5"/>
</g>
<!-- CwDeviceTypeService -->
<g id="node2" class="node">
<title>CwDeviceTypeService</title>
<ellipse fill="#fdb462" stroke="black" cx="1408" cy="-104" rx="100.68" ry="18"/>
<text text-anchor="middle" x="1408" y="-99.8" font-family="Times,serif" font-size="14.00">CwDeviceTypeService</text>
</g>
<!-- CwDeviceTypeService&#45;&gt;DataModule -->
<g id="edge2" class="edge">
<title>CwDeviceTypeService&#45;&gt;DataModule</title>
<path fill="none" stroke="black" d="M1408,-122.13C1408,-142.57 1408,-173 1408,-173 1408,-173 936.41,-173 936.41,-173"/>
<polygon fill="black" stroke="black" points="936.41,-169.5 926.41,-173 936.41,-176.5 936.41,-169.5"/>
</g>
<!-- CwDevicesService -->
<g id="node3" class="node">
<title>CwDevicesService</title>
<ellipse fill="#fdb462" stroke="black" cx="1205" cy="-104" rx="84.51" ry="18"/>
<text text-anchor="middle" x="1205" y="-99.8" font-family="Times,serif" font-size="14.00">CwDevicesService</text>
</g>
<!-- CwDevicesService&#45;&gt;DataModule -->
<g id="edge3" class="edge">
<title>CwDevicesService&#45;&gt;DataModule</title>
<path fill="none" stroke="black" d="M1205,-122.27C1205,-140.56 1205,-166 1205,-166 1205,-166 936.09,-166 936.09,-166"/>
<polygon fill="black" stroke="black" points="936.09,-162.5 926.09,-166 936.09,-169.5 936.09,-162.5"/>
</g>
<!-- DataRepository -->
<g id="node4" class="node">
<title>DataRepository</title>
<ellipse fill="#fdb462" stroke="black" cx="1031" cy="-104" rx="71.79" ry="18"/>
<text text-anchor="middle" x="1031" y="-99.8" font-family="Times,serif" font-size="14.00">DataRepository</text>
</g>
<!-- DataRepository&#45;&gt;DataModule -->
<g id="edge4" class="edge">
<title>DataRepository&#45;&gt;DataModule</title>
<path fill="none" stroke="black" d="M1031,-122.01C1031,-138.05 1031,-159 1031,-159 1031,-159 936.21,-159 936.21,-159"/>
<polygon fill="black" stroke="black" points="936.21,-155.5 926.21,-159 936.21,-162.5 936.21,-155.5"/>
</g>
<!-- DataService -->
<g id="node5" class="node">
<title>DataService</title>
<ellipse fill="#fdb462" stroke="black" cx="883" cy="-104" rx="58.44" ry="18"/>
<text text-anchor="middle" x="883" y="-99.8" font-family="Times,serif" font-size="14.00">DataService</text>
</g>
<!-- DataService&#45;&gt;DataModule -->
<g id="edge5" class="edge">
<title>DataService&#45;&gt;DataModule</title>
<path fill="none" stroke="black" d="M883,-122.11C883,-122.11 883,-140.99 883,-140.99"/>
<polygon fill="black" stroke="black" points="879.5,-140.99 883,-150.99 886.5,-140.99 879.5,-140.99"/>
</g>
<!-- DeviceOwnerRepository -->
<g id="node6" class="node">
<title>DeviceOwnerRepository</title>
<ellipse fill="#fdb462" stroke="black" cx="700" cy="-104" rx="107.06" ry="18"/>
<text text-anchor="middle" x="700" y="-99.8" font-family="Times,serif" font-size="14.00">DeviceOwnerRepository</text>
</g>
<!-- DeviceOwnerRepository&#45;&gt;DataModule -->
<g id="edge6" class="edge">
<title>DeviceOwnerRepository&#45;&gt;DataModule</title>
<path fill="none" stroke="black" d="M700,-122.01C700,-138.05 700,-159 700,-159 700,-159 829.63,-159 829.63,-159"/>
<polygon fill="black" stroke="black" points="829.63,-162.5 839.63,-159 829.63,-155.5 829.63,-162.5"/>
</g>
<!-- DeviceRepository -->
<g id="node7" class="node">
<title>DeviceRepository</title>
<ellipse fill="#fdb462" stroke="black" cx="494" cy="-104" rx="80.52" ry="18"/>
<text text-anchor="middle" x="494" y="-99.8" font-family="Times,serif" font-size="14.00">DeviceRepository</text>
</g>
<!-- DeviceRepository&#45;&gt;DataModule -->
<g id="edge7" class="edge">
<title>DeviceRepository&#45;&gt;DataModule</title>
<path fill="none" stroke="black" d="M494,-122.27C494,-140.56 494,-166 494,-166 494,-166 829.88,-166 829.88,-166"/>
<polygon fill="black" stroke="black" points="829.88,-169.5 839.88,-166 829.88,-162.5 829.88,-169.5"/>
</g>
<!-- DeviceTypeRepository -->
<g id="node8" class="node">
<title>DeviceTypeRepository</title>
<ellipse fill="#fdb462" stroke="black" cx="295" cy="-104" rx="100.7" ry="18"/>
<text text-anchor="middle" x="295" y="-99.8" font-family="Times,serif" font-size="14.00">DeviceTypeRepository</text>
</g>
<!-- DeviceTypeRepository&#45;&gt;DataModule -->
<g id="edge8" class="edge">
<title>DeviceTypeRepository&#45;&gt;DataModule</title>
<path fill="none" stroke="black" d="M295,-122.13C295,-142.57 295,-173 295,-173 295,-173 829.76,-173 829.76,-173"/>
<polygon fill="black" stroke="black" points="829.76,-176.5 839.76,-173 829.76,-169.5 829.76,-176.5"/>
</g>
<!-- SupabaseService -->
<g id="node9" class="node">
<title>SupabaseService</title>
<ellipse fill="#fdb462" stroke="black" cx="100" cy="-104" rx="76.42" ry="18"/>
<text text-anchor="middle" x="100" y="-99.8" font-family="Times,serif" font-size="14.00">SupabaseService</text>
</g>
<!-- SupabaseService&#45;&gt;DataModule -->
<g id="edge9" class="edge">
<title>SupabaseService&#45;&gt;DataModule</title>
<path fill="none" stroke="black" d="M100,-122.01C100,-144.49 100,-180 100,-180 100,-180 829.79,-180 829.79,-180"/>
<polygon fill="black" stroke="black" points="829.79,-183.5 839.79,-180 829.79,-176.5 829.79,-183.5"/>
</g>
</g>
</svg>
