<?xml version="1.0" encoding="UTF-8" standalone="no"?>
<!DOCTYPE svg PUBLIC "-//W3C//DTD SVG 1.1//EN"
 "http://www.w3.org/Graphics/SVG/1.1/DTD/svg11.dtd">
<!-- Generated by graphviz version 2.47.0 (20210316.0004)
 -->
<!-- Title: dependencies Pages: 1 -->
<svg width="2094pt" height="284pt"
 viewBox="0.00 0.00 2094.00 284.00" xmlns="http://www.w3.org/2000/svg" xmlns:xlink="http://www.w3.org/1999/xlink">
<g id="graph0" class="graph" transform="scale(1 1) rotate(0) translate(4 280)">
<title>dependencies</title>
<polygon fill="white" stroke="transparent" points="-4,4 -4,-280 2090,-280 2090,4 -4,4"/>
<text text-anchor="start" x="1022.01" y="-42.4" font-family="Times-12" font-weight="bold" font-size="14.00">Legend</text>
<polygon fill="#ffffb3" stroke="transparent" points="809,-10 809,-30 829,-30 829,-10 809,-10"/>
<text text-anchor="start" x="832.63" y="-15.4" font-family="Times-12" font-size="14.00"> &#160;Declarations</text>
<polygon fill="#8dd3c7" stroke="transparent" points="922,-10 922,-30 942,-30 942,-10 922,-10"/>
<text text-anchor="start" x="945.73" y="-15.4" font-family="Times-12" font-size="14.00"> &#160;Module</text>
<polygon fill="#80b1d3" stroke="transparent" points="1008,-10 1008,-30 1028,-30 1028,-10 1008,-10"/>
<text text-anchor="start" x="1031.78" y="-15.4" font-family="Times-12" font-size="14.00"> &#160;Bootstrap</text>
<polygon fill="#fdb462" stroke="transparent" points="1105,-10 1105,-30 1125,-30 1125,-10 1105,-10"/>
<text text-anchor="start" x="1128.67" y="-15.4" font-family="Times-12" font-size="14.00"> &#160;Providers</text>
<polygon fill="#fb8072" stroke="transparent" points="1201,-10 1201,-30 1221,-30 1221,-10 1201,-10"/>
<text text-anchor="start" x="1224.73" y="-15.4" font-family="Times-12" font-size="14.00"> &#160;Exports</text>
<g id="clust1" class="cluster">
<title>cluster_DataModule</title>
<polygon fill="none" stroke="black" stroke-dasharray="1,5" points="8,-70 8,-268 2078,-268 2078,-70 8,-70"/>
</g>
<g id="clust3" class="cluster">
<title>cluster_DataModule_imports</title>
<polygon fill="none" stroke="black" points="1764,-78 1764,-130 2070,-130 2070,-78 1764,-78"/>
</g>
<g id="clust6" class="cluster">
<title>cluster_DataModule_providers</title>
<polygon fill="none" stroke="black" points="16,-78 16,-130 1756,-130 1756,-78 16,-78"/>
</g>
<g id="clust4" class="cluster">
<title>cluster_DataModule_exports</title>
<polygon fill="none" stroke="black" points="921,-208 921,-260 1151,-260 1151,-208 921,-208"/>
</g>
<!-- CwDeviceTypeModule -->
<g id="node1" class="node">
<title>CwDeviceTypeModule</title>
<polygon fill="#8dd3c7" stroke="black" points="2061.9,-122 2058.9,-126 2037.9,-126 2034.9,-122 1914.1,-122 1914.1,-86 2061.9,-86 2061.9,-122"/>
<text text-anchor="middle" x="1988" y="-99.8" font-family="Times,serif" font-size="14.00">CwDeviceTypeModule</text>
</g>
<!-- DataModule -->
<g id="node3" class="node">
<title>DataModule</title>
<polygon fill="#8dd3c7" stroke="black" points="1073.98,-187 1070.98,-191 1049.98,-191 1046.98,-187 988.02,-187 988.02,-151 1073.98,-151 1073.98,-187"/>
<text text-anchor="middle" x="1031" y="-164.8" font-family="Times,serif" font-size="14.00">DataModule</text>
</g>
<!-- CwDeviceTypeModule&#45;&gt;DataModule -->
<g id="edge1" class="edge">
<title>CwDeviceTypeModule&#45;&gt;DataModule</title>
<path fill="none" stroke="black" d="M1988,-122.25C1988,-145.02 1988,-181 1988,-181 1988,-181 1083.98,-181 1083.98,-181"/>
<polygon fill="black" stroke="black" points="1083.98,-177.5 1073.98,-181 1083.98,-184.5 1083.98,-177.5"/>
</g>
<!-- CwDevicesModule -->
<g id="node2" class="node">
<title>CwDevicesModule</title>
<polygon fill="#8dd3c7" stroke="black" points="1896.08,-122 1893.08,-126 1872.08,-126 1869.08,-122 1771.92,-122 1771.92,-86 1896.08,-86 1896.08,-122"/>
<text text-anchor="middle" x="1834" y="-99.8" font-family="Times,serif" font-size="14.00">CwDevicesModule</text>
</g>
<!-- CwDevicesModule&#45;&gt;DataModule -->
<g id="edge2" class="edge">
<title>CwDevicesModule&#45;&gt;DataModule</title>
<path fill="none" stroke="black" d="M1834,-122.28C1834,-143.32 1834,-175 1834,-175 1834,-175 1084.17,-175 1084.17,-175"/>
<polygon fill="black" stroke="black" points="1084.17,-171.5 1074.17,-175 1084.17,-178.5 1084.17,-171.5"/>
</g>
<!-- DataRepository  -->
<g id="node4" class="node">
<title>DataRepository </title>
<polygon fill="#fb8072" stroke="black" points="1142.86,-252 1035.14,-252 1035.14,-216 1142.86,-216 1142.86,-252"/>
<text text-anchor="middle" x="1089" y="-229.8" font-family="Times,serif" font-size="14.00">DataRepository </text>
</g>
<!-- DataModule&#45;&gt;DataRepository  -->
<g id="edge3" class="edge">
<title>DataModule&#45;&gt;DataRepository </title>
<path fill="none" stroke="black" stroke-dasharray="5,2" d="M1054.65,-187.11C1054.65,-187.11 1054.65,-205.99 1054.65,-205.99"/>
<polygon fill="black" stroke="black" points="1051.15,-205.99 1054.65,-215.99 1058.15,-205.99 1051.15,-205.99"/>
</g>
<!-- DataService  -->
<g id="node5" class="node">
<title>DataService </title>
<polygon fill="#fb8072" stroke="black" points="1016.9,-252 929.1,-252 929.1,-216 1016.9,-216 1016.9,-252"/>
<text text-anchor="middle" x="973" y="-229.8" font-family="Times,serif" font-size="14.00">DataService </text>
</g>
<!-- DataModule&#45;&gt;DataService  -->
<g id="edge4" class="edge">
<title>DataModule&#45;&gt;DataService </title>
<path fill="none" stroke="black" stroke-dasharray="5,2" d="M1002.48,-187.11C1002.48,-187.11 1002.48,-205.99 1002.48,-205.99"/>
<polygon fill="black" stroke="black" points="998.98,-205.99 1002.48,-215.99 1005.98,-205.99 998.98,-205.99"/>
</g>
<!-- CwDeviceOwnersService -->
<g id="node6" class="node">
<title>CwDeviceOwnersService</title>
<ellipse fill="#fdb462" stroke="black" cx="1637" cy="-104" rx="110.55" ry="18"/>
<text text-anchor="middle" x="1637" y="-99.8" font-family="Times,serif" font-size="14.00">CwDeviceOwnersService</text>
</g>
<!-- CwDeviceOwnersService&#45;&gt;DataModule -->
<g id="edge5" class="edge">
<title>CwDeviceOwnersService&#45;&gt;DataModule</title>
<path fill="none" stroke="black" d="M1637,-122.11C1637,-141.34 1637,-169 1637,-169 1637,-169 1084.1,-169 1084.1,-169"/>
<polygon fill="black" stroke="black" points="1084.1,-165.5 1074.1,-169 1084.1,-172.5 1084.1,-165.5"/>
</g>
<!-- CwDeviceTypeService -->
<g id="node7" class="node">
<title>CwDeviceTypeService</title>
<ellipse fill="#fdb462" stroke="black" cx="1408" cy="-104" rx="100.68" ry="18"/>
<text text-anchor="middle" x="1408" y="-99.8" font-family="Times,serif" font-size="14.00">CwDeviceTypeService</text>
</g>
<!-- CwDeviceTypeService&#45;&gt;DataModule -->
<g id="edge6" class="edge">
<title>CwDeviceTypeService&#45;&gt;DataModule</title>
<path fill="none" stroke="black" d="M1408,-122.02C1408,-139.37 1408,-163 1408,-163 1408,-163 1084.25,-163 1084.25,-163"/>
<polygon fill="black" stroke="black" points="1084.25,-159.5 1074.25,-163 1084.25,-166.5 1084.25,-159.5"/>
</g>
<!-- CwDevicesService -->
<g id="node8" class="node">
<title>CwDevicesService</title>
<ellipse fill="#fdb462" stroke="black" cx="1205" cy="-104" rx="84.51" ry="18"/>
<text text-anchor="middle" x="1205" y="-99.8" font-family="Times,serif" font-size="14.00">CwDevicesService</text>
</g>
<!-- CwDevicesService&#45;&gt;DataModule -->
<g id="edge7" class="edge">
<title>CwDevicesService&#45;&gt;DataModule</title>
<path fill="none" stroke="black" d="M1131.59,-113.23C1131.59,-128.42 1131.59,-157 1131.59,-157 1131.59,-157 1084.24,-157 1084.24,-157"/>
<polygon fill="black" stroke="black" points="1084.24,-153.5 1074.24,-157 1084.24,-160.5 1084.24,-153.5"/>
</g>
<!-- DataRepository -->
<g id="node9" class="node">
<title>DataRepository</title>
<ellipse fill="#fdb462" stroke="black" cx="1031" cy="-104" rx="71.79" ry="18"/>
<text text-anchor="middle" x="1031" y="-99.8" font-family="Times,serif" font-size="14.00">DataRepository</text>
</g>
<!-- DataRepository&#45;&gt;DataModule -->
<g id="edge8" class="edge">
<title>DataRepository&#45;&gt;DataModule</title>
<path fill="none" stroke="black" d="M1031,-122.11C1031,-122.11 1031,-140.99 1031,-140.99"/>
<polygon fill="black" stroke="black" points="1027.5,-140.99 1031,-150.99 1034.5,-140.99 1027.5,-140.99"/>
</g>
<!-- DataService -->
<g id="node10" class="node">
<title>DataService</title>
<ellipse fill="#fdb462" stroke="black" cx="883" cy="-104" rx="58.44" ry="18"/>
<text text-anchor="middle" x="883" y="-99.8" font-family="Times,serif" font-size="14.00">DataService</text>
</g>
<!-- DataService&#45;&gt;DataModule -->
<g id="edge9" class="edge">
<title>DataService&#45;&gt;DataModule</title>
<path fill="none" stroke="black" d="M935.13,-112.28C935.13,-127.19 935.13,-157 935.13,-157 935.13,-157 977.83,-157 977.83,-157"/>
<polygon fill="black" stroke="black" points="977.83,-160.5 987.83,-157 977.83,-153.5 977.83,-160.5"/>
</g>
<!-- DeviceOwnerRepository -->
<g id="node11" class="node">
<title>DeviceOwnerRepository</title>
<ellipse fill="#fdb462" stroke="black" cx="700" cy="-104" rx="107.06" ry="18"/>
<text text-anchor="middle" x="700" y="-99.8" font-family="Times,serif" font-size="14.00">DeviceOwnerRepository</text>
</g>
<!-- DeviceOwnerRepository&#45;&gt;DataModule -->
<g id="edge10" class="edge">
<title>DeviceOwnerRepository&#45;&gt;DataModule</title>
<path fill="none" stroke="black" d="M700,-122.02C700,-139.37 700,-163 700,-163 700,-163 977.73,-163 977.73,-163"/>
<polygon fill="black" stroke="black" points="977.73,-166.5 987.73,-163 977.73,-159.5 977.73,-166.5"/>
</g>
<!-- DeviceRepository -->
<g id="node12" class="node">
<title>DeviceRepository</title>
<ellipse fill="#fdb462" stroke="black" cx="494" cy="-104" rx="80.52" ry="18"/>
<text text-anchor="middle" x="494" y="-99.8" font-family="Times,serif" font-size="14.00">DeviceRepository</text>
</g>
<!-- DeviceRepository&#45;&gt;DataModule -->
<g id="edge11" class="edge">
<title>DeviceRepository&#45;&gt;DataModule</title>
<path fill="none" stroke="black" d="M494,-122.11C494,-141.34 494,-169 494,-169 494,-169 977.96,-169 977.96,-169"/>
<polygon fill="black" stroke="black" points="977.96,-172.5 987.96,-169 977.96,-165.5 977.96,-172.5"/>
</g>
<!-- DeviceTypeRepository -->
<g id="node13" class="node">
<title>DeviceTypeRepository</title>
<ellipse fill="#fdb462" stroke="black" cx="295" cy="-104" rx="100.7" ry="18"/>
<text text-anchor="middle" x="295" y="-99.8" font-family="Times,serif" font-size="14.00">DeviceTypeRepository</text>
</g>
<!-- DeviceTypeRepository&#45;&gt;DataModule -->
<g id="edge12" class="edge">
<title>DeviceTypeRepository&#45;&gt;DataModule</title>
<path fill="none" stroke="black" d="M295,-122.28C295,-143.32 295,-175 295,-175 295,-175 977.98,-175 977.98,-175"/>
<polygon fill="black" stroke="black" points="977.98,-178.5 987.98,-175 977.98,-171.5 977.98,-178.5"/>
</g>
<!-- SupabaseService -->
<g id="node14" class="node">
<title>SupabaseService</title>
<ellipse fill="#fdb462" stroke="black" cx="100" cy="-104" rx="76.42" ry="18"/>
<text text-anchor="middle" x="100" y="-99.8" font-family="Times,serif" font-size="14.00">SupabaseService</text>
</g>
<!-- SupabaseService&#45;&gt;DataModule -->
<g id="edge13" class="edge">
<title>SupabaseService&#45;&gt;DataModule</title>
<path fill="none" stroke="black" d="M100,-122.25C100,-145.02 100,-181 100,-181 100,-181 977.96,-181 977.96,-181"/>
<polygon fill="black" stroke="black" points="977.96,-184.5 987.96,-181 977.96,-177.5 977.96,-184.5"/>
</g>
</g>
</svg>
