<?xml version="1.0" encoding="UTF-8" standalone="no"?>
<!DOCTYPE svg PUBLIC "-//W3C//DTD SVG 1.1//EN"
 "http://www.w3.org/Graphics/SVG/1.1/DTD/svg11.dtd">
<!-- Generated by graphviz version 2.47.0 (20210316.0004)
 -->
<!-- Title: dependencies Pages: 1 -->
<svg width="534pt" height="211pt"
 viewBox="0.00 0.00 534.00 211.00" xmlns="http://www.w3.org/2000/svg" xmlns:xlink="http://www.w3.org/1999/xlink">
<g id="graph0" class="graph" transform="scale(1 1) rotate(0) translate(4 207)">
<title>dependencies</title>
<polygon fill="white" stroke="transparent" points="-4,4 -4,-207 530,-207 530,4 -4,4"/>
<text text-anchor="start" x="242.01" y="-42.4" font-family="Times-12" font-weight="bold" font-size="14.00">Legend</text>
<polygon fill="#ffffb3" stroke="transparent" points="29,-10 29,-30 49,-30 49,-10 29,-10"/>
<text text-anchor="start" x="52.63" y="-15.4" font-family="Times-12" font-size="14.00"> &#160;Declarations</text>
<polygon fill="#8dd3c7" stroke="transparent" points="142,-10 142,-30 162,-30 162,-10 142,-10"/>
<text text-anchor="start" x="165.73" y="-15.4" font-family="Times-12" font-size="14.00"> &#160;Module</text>
<polygon fill="#80b1d3" stroke="transparent" points="228,-10 228,-30 248,-30 248,-10 228,-10"/>
<text text-anchor="start" x="251.78" y="-15.4" font-family="Times-12" font-size="14.00"> &#160;Bootstrap</text>
<polygon fill="#fdb462" stroke="transparent" points="325,-10 325,-30 345,-30 345,-10 325,-10"/>
<text text-anchor="start" x="348.67" y="-15.4" font-family="Times-12" font-size="14.00"> &#160;Providers</text>
<polygon fill="#fb8072" stroke="transparent" points="421,-10 421,-30 441,-30 441,-10 421,-10"/>
<text text-anchor="start" x="444.73" y="-15.4" font-family="Times-12" font-size="14.00"> &#160;Exports</text>
<g id="clust1" class="cluster">
<title>cluster_LocationModule</title>
<polygon fill="none" stroke="black" stroke-dasharray="1,5" points="8,-70 8,-195 518,-195 518,-70 8,-70"/>
</g>
<g id="clust6" class="cluster">
<title>cluster_LocationModule_providers</title>
<polygon fill="none" stroke="black" points="152,-78 152,-130 510,-130 510,-78 152,-78"/>
</g>
<g id="clust3" class="cluster">
<title>cluster_LocationModule_imports</title>
<polygon fill="none" stroke="black" points="16,-78 16,-130 144,-130 144,-78 16,-78"/>
</g>
<!-- SupabaseModule -->
<g id="node1" class="node">
<title>SupabaseModule</title>
<polygon fill="#8dd3c7" stroke="black" points="136.42,-122 133.42,-126 112.42,-126 109.42,-122 23.58,-122 23.58,-86 136.42,-86 136.42,-122"/>
<text text-anchor="middle" x="80" y="-99.8" font-family="Times,serif" font-size="14.00">SupabaseModule</text>
</g>
<!-- LocationModule -->
<g id="node2" class="node">
<title>LocationModule</title>
<polygon fill="#8dd3c7" stroke="black" points="288.81,-187 285.81,-191 264.81,-191 261.81,-187 179.19,-187 179.19,-151 288.81,-151 288.81,-187"/>
<text text-anchor="middle" x="234" y="-164.8" font-family="Times,serif" font-size="14.00">LocationModule</text>
</g>
<!-- SupabaseModule&#45;&gt;LocationModule -->
<g id="edge1" class="edge">
<title>SupabaseModule&#45;&gt;LocationModule</title>
<path fill="none" stroke="black" d="M80,-122.11C80,-141.34 80,-169 80,-169 80,-169 169.27,-169 169.27,-169"/>
<polygon fill="black" stroke="black" points="169.27,-172.5 179.27,-169 169.27,-165.5 169.27,-172.5"/>
</g>
<!-- LocationRepository -->
<g id="node3" class="node">
<title>LocationRepository</title>
<ellipse fill="#fdb462" stroke="black" cx="414" cy="-104" rx="87.98" ry="18"/>
<text text-anchor="middle" x="414" y="-99.8" font-family="Times,serif" font-size="14.00">LocationRepository</text>
</g>
<!-- LocationRepository&#45;&gt;LocationModule -->
<g id="edge2" class="edge">
<title>LocationRepository&#45;&gt;LocationModule</title>
<path fill="none" stroke="black" d="M414,-122.11C414,-141.34 414,-169 414,-169 414,-169 298.98,-169 298.98,-169"/>
<polygon fill="black" stroke="black" points="298.98,-165.5 288.98,-169 298.98,-172.5 298.98,-165.5"/>
</g>
<!-- LocationService -->
<g id="node4" class="node">
<title>LocationService</title>
<ellipse fill="#fdb462" stroke="black" cx="234" cy="-104" rx="74.14" ry="18"/>
<text text-anchor="middle" x="234" y="-99.8" font-family="Times,serif" font-size="14.00">LocationService</text>
</g>
<!-- LocationService&#45;&gt;LocationModule -->
<g id="edge3" class="edge">
<title>LocationService&#45;&gt;LocationModule</title>
<path fill="none" stroke="black" d="M234,-122.11C234,-122.11 234,-140.99 234,-140.99"/>
<polygon fill="black" stroke="black" points="230.5,-140.99 234,-150.99 237.5,-140.99 230.5,-140.99"/>
</g>
</g>
</svg>
