<?xml version="1.0" encoding="UTF-8" standalone="no"?>
<!DOCTYPE svg PUBLIC "-//W3C//DTD SVG 1.1//EN"
 "http://www.w3.org/Graphics/SVG/1.1/DTD/svg11.dtd">
<!-- Generated by graphviz version 2.47.0 (20210316.0004)
 -->
<!-- Title: dependencies Pages: 1 -->
<svg width="534pt" height="211pt"
 viewBox="0.00 0.00 534.00 211.00" xmlns="http://www.w3.org/2000/svg" xmlns:xlink="http://www.w3.org/1999/xlink">
<g id="graph0" class="graph" transform="scale(1 1) rotate(0) translate(4 207)">
<title>dependencies</title>
<polygon fill="white" stroke="transparent" points="-4,4 -4,-207 530,-207 530,4 -4,4"/>
<text text-anchor="start" x="242.01" y="-42.4" font-family="Times-12" font-weight="bold" font-size="14.00">Legend</text>
<polygon fill="#ffffb3" stroke="transparent" points="29,-10 29,-30 49,-30 49,-10 29,-10"/>
<text text-anchor="start" x="52.63" y="-15.4" font-family="Times-12" font-size="14.00"> &#160;Declarations</text>
<polygon fill="#8dd3c7" stroke="transparent" points="142,-10 142,-30 162,-30 162,-10 142,-10"/>
<text text-anchor="start" x="165.73" y="-15.4" font-family="Times-12" font-size="14.00"> &#160;Module</text>
<polygon fill="#80b1d3" stroke="transparent" points="228,-10 228,-30 248,-30 248,-10 228,-10"/>
<text text-anchor="start" x="251.78" y="-15.4" font-family="Times-12" font-size="14.00"> &#160;Bootstrap</text>
<polygon fill="#fdb462" stroke="transparent" points="325,-10 325,-30 345,-30 345,-10 325,-10"/>
<text text-anchor="start" x="348.67" y="-15.4" font-family="Times-12" font-size="14.00"> &#160;Providers</text>
<polygon fill="#fb8072" stroke="transparent" points="421,-10 421,-30 441,-30 441,-10 421,-10"/>
<text text-anchor="start" x="444.73" y="-15.4" font-family="Times-12" font-size="14.00"> &#160;Exports</text>
<g id="clust1" class="cluster">
<title>cluster_LocationModule</title>
<polygon fill="none" stroke="black" stroke-dasharray="1,5" points="8,-70 8,-195 518,-195 518,-70 8,-70"/>
</g>
<g id="clust3" class="cluster">
<title>cluster_LocationModule_imports</title>
<polygon fill="none" stroke="black" points="382,-78 382,-130 510,-130 510,-78 382,-78"/>
</g>
<g id="clust6" class="cluster">
<title>cluster_LocationModule_providers</title>
<polygon fill="none" stroke="black" points="16,-78 16,-130 374,-130 374,-78 16,-78"/>
</g>
<!-- SupabaseModule -->
<g id="node1" class="node">
<title>SupabaseModule</title>
<polygon fill="#8dd3c7" stroke="black" points="502.42,-122 499.42,-126 478.42,-126 475.42,-122 389.58,-122 389.58,-86 502.42,-86 502.42,-122"/>
<text text-anchor="middle" x="446" y="-99.8" font-family="Times,serif" font-size="14.00">SupabaseModule</text>
</g>
<!-- LocationModule -->
<g id="node2" class="node">
<title>LocationModule</title>
<polygon fill="#8dd3c7" stroke="black" points="332.81,-187 329.81,-191 308.81,-191 305.81,-187 223.19,-187 223.19,-151 332.81,-151 332.81,-187"/>
<text text-anchor="middle" x="278" y="-164.8" font-family="Times,serif" font-size="14.00">LocationModule</text>
</g>
<!-- SupabaseModule&#45;&gt;LocationModule -->
<g id="edge1" class="edge">
<title>SupabaseModule&#45;&gt;LocationModule</title>
<path fill="none" stroke="black" d="M446,-122.11C446,-141.34 446,-169 446,-169 446,-169 343.01,-169 343.01,-169"/>
<polygon fill="black" stroke="black" points="343.01,-165.5 333.01,-169 343.01,-172.5 343.01,-165.5"/>
</g>
<!-- LocationRepository -->
<g id="node3" class="node">
<title>LocationRepository</title>
<ellipse fill="#fdb462" stroke="black" cx="278" cy="-104" rx="87.98" ry="18"/>
<text text-anchor="middle" x="278" y="-99.8" font-family="Times,serif" font-size="14.00">LocationRepository</text>
</g>
<!-- LocationRepository&#45;&gt;LocationModule -->
<g id="edge2" class="edge">
<title>LocationRepository&#45;&gt;LocationModule</title>
<path fill="none" stroke="black" d="M278,-122.11C278,-122.11 278,-140.99 278,-140.99"/>
<polygon fill="black" stroke="black" points="274.5,-140.99 278,-150.99 281.5,-140.99 274.5,-140.99"/>
</g>
<!-- LocationService -->
<g id="node4" class="node">
<title>LocationService</title>
<ellipse fill="#fdb462" stroke="black" cx="98" cy="-104" rx="74.14" ry="18"/>
<text text-anchor="middle" x="98" y="-99.8" font-family="Times,serif" font-size="14.00">LocationService</text>
</g>
<!-- LocationService&#45;&gt;LocationModule -->
<g id="edge3" class="edge">
<title>LocationService&#45;&gt;LocationModule</title>
<path fill="none" stroke="black" d="M98,-122.11C98,-141.34 98,-169 98,-169 98,-169 213.02,-169 213.02,-169"/>
<polygon fill="black" stroke="black" points="213.02,-172.5 223.02,-169 213.02,-165.5 213.02,-172.5"/>
</g>
</g>
</svg>
