<?xml version="1.0" encoding="UTF-8" standalone="no"?>
<!DOCTYPE svg PUBLIC "-//W3C//DTD SVG 1.1//EN"
 "http://www.w3.org/Graphics/SVG/1.1/DTD/svg11.dtd">
<!-- Generated by graphviz version 2.47.0 (20210316.0004)
 -->
<!-- Title: dependencies Pages: 1 -->
<svg width="646pt" height="284pt"
 viewBox="0.00 0.00 646.00 284.00" xmlns="http://www.w3.org/2000/svg" xmlns:xlink="http://www.w3.org/1999/xlink">
<g id="graph0" class="graph" transform="scale(1 1) rotate(0) translate(4 280)">
<title>dependencies</title>
<polygon fill="white" stroke="transparent" points="-4,4 -4,-280 642,-280 642,4 -4,4"/>
<text text-anchor="start" x="298.01" y="-42.4" font-family="Times-12" font-weight="bold" font-size="14.00">Legend</text>
<polygon fill="#ffffb3" stroke="transparent" points="85,-10 85,-30 105,-30 105,-10 85,-10"/>
<text text-anchor="start" x="108.63" y="-15.4" font-family="Times-12" font-size="14.00"> &#160;Declarations</text>
<polygon fill="#8dd3c7" stroke="transparent" points="198,-10 198,-30 218,-30 218,-10 198,-10"/>
<text text-anchor="start" x="221.73" y="-15.4" font-family="Times-12" font-size="14.00"> &#160;Module</text>
<polygon fill="#80b1d3" stroke="transparent" points="284,-10 284,-30 304,-30 304,-10 284,-10"/>
<text text-anchor="start" x="307.78" y="-15.4" font-family="Times-12" font-size="14.00"> &#160;Bootstrap</text>
<polygon fill="#fdb462" stroke="transparent" points="381,-10 381,-30 401,-30 401,-10 381,-10"/>
<text text-anchor="start" x="404.67" y="-15.4" font-family="Times-12" font-size="14.00"> &#160;Providers</text>
<polygon fill="#fb8072" stroke="transparent" points="477,-10 477,-30 497,-30 497,-10 477,-10"/>
<text text-anchor="start" x="500.73" y="-15.4" font-family="Times-12" font-size="14.00"> &#160;Exports</text>
<g id="clust1" class="cluster">
<title>cluster_CwDeviceOwnersModule</title>
<polygon fill="none" stroke="black" stroke-dasharray="1,5" points="8,-70 8,-268 630,-268 630,-70 8,-70"/>
</g>
<g id="clust3" class="cluster">
<title>cluster_CwDeviceOwnersModule_imports</title>
<polygon fill="none" stroke="black" points="494,-78 494,-130 622,-130 622,-78 494,-78"/>
</g>
<g id="clust4" class="cluster">
<title>cluster_CwDeviceOwnersModule_exports</title>
<polygon fill="none" stroke="black" points="277,-208 277,-260 457,-260 457,-208 277,-208"/>
</g>
<g id="clust6" class="cluster">
<title>cluster_CwDeviceOwnersModule_providers</title>
<polygon fill="none" stroke="black" points="16,-78 16,-130 486,-130 486,-78 16,-78"/>
</g>
<!-- SupabaseModule -->
<g id="node1" class="node">
<title>SupabaseModule</title>
<polygon fill="#8dd3c7" stroke="black" points="614.42,-122 611.42,-126 590.42,-126 587.42,-122 501.58,-122 501.58,-86 614.42,-86 614.42,-122"/>
<text text-anchor="middle" x="558" y="-99.8" font-family="Times,serif" font-size="14.00">SupabaseModule</text>
</g>
<!-- CwDeviceOwnersModule -->
<g id="node2" class="node">
<title>CwDeviceOwnersModule</title>
<polygon fill="#8dd3c7" stroke="black" points="448.17,-187 445.17,-191 424.17,-191 421.17,-187 285.83,-187 285.83,-151 448.17,-151 448.17,-187"/>
<text text-anchor="middle" x="367" y="-164.8" font-family="Times,serif" font-size="14.00">CwDeviceOwnersModule</text>
</g>
<!-- SupabaseModule&#45;&gt;CwDeviceOwnersModule -->
<g id="edge1" class="edge">
<title>SupabaseModule&#45;&gt;CwDeviceOwnersModule</title>
<path fill="none" stroke="black" d="M558,-122.11C558,-141.34 558,-169 558,-169 558,-169 458.28,-169 458.28,-169"/>
<polygon fill="black" stroke="black" points="458.28,-165.5 448.28,-169 458.28,-172.5 458.28,-165.5"/>
</g>
<!-- CwDeviceOwnersService  -->
<g id="node3" class="node">
<title>CwDeviceOwnersService </title>
<polygon fill="#fb8072" stroke="black" points="449.09,-252 284.91,-252 284.91,-216 449.09,-216 449.09,-252"/>
<text text-anchor="middle" x="367" y="-229.8" font-family="Times,serif" font-size="14.00">CwDeviceOwnersService </text>
</g>
<!-- CwDeviceOwnersModule&#45;&gt;CwDeviceOwnersService  -->
<g id="edge2" class="edge">
<title>CwDeviceOwnersModule&#45;&gt;CwDeviceOwnersService </title>
<path fill="none" stroke="black" stroke-dasharray="5,2" d="M367,-187.11C367,-187.11 367,-205.99 367,-205.99"/>
<polygon fill="black" stroke="black" points="363.5,-205.99 367,-215.99 370.5,-205.99 363.5,-205.99"/>
</g>
<!-- CwDeviceOwnersService -->
<g id="node4" class="node">
<title>CwDeviceOwnersService</title>
<ellipse fill="#fdb462" stroke="black" cx="367" cy="-104" rx="110.55" ry="18"/>
<text text-anchor="middle" x="367" y="-99.8" font-family="Times,serif" font-size="14.00">CwDeviceOwnersService</text>
</g>
<!-- CwDeviceOwnersService&#45;&gt;CwDeviceOwnersModule -->
<g id="edge3" class="edge">
<title>CwDeviceOwnersService&#45;&gt;CwDeviceOwnersModule</title>
<path fill="none" stroke="black" d="M367,-122.11C367,-122.11 367,-140.99 367,-140.99"/>
<polygon fill="black" stroke="black" points="363.5,-140.99 367,-150.99 370.5,-140.99 363.5,-140.99"/>
</g>
<!-- DeviceOwnerRepository -->
<g id="node5" class="node">
<title>DeviceOwnerRepository</title>
<ellipse fill="#fdb462" stroke="black" cx="131" cy="-104" rx="107.06" ry="18"/>
<text text-anchor="middle" x="131" y="-99.8" font-family="Times,serif" font-size="14.00">DeviceOwnerRepository</text>
</g>
<!-- DeviceOwnerRepository&#45;&gt;CwDeviceOwnersModule -->
<g id="edge4" class="edge">
<title>DeviceOwnerRepository&#45;&gt;CwDeviceOwnersModule</title>
<path fill="none" stroke="black" d="M131,-122.11C131,-141.34 131,-169 131,-169 131,-169 275.78,-169 275.78,-169"/>
<polygon fill="black" stroke="black" points="275.78,-172.5 285.78,-169 275.78,-165.5 275.78,-172.5"/>
</g>
</g>
</svg>
