<?xml version="1.0" encoding="UTF-8" standalone="no"?>
<!DOCTYPE svg PUBLIC "-//W3C//DTD SVG 1.1//EN"
 "http://www.w3.org/Graphics/SVG/1.1/DTD/svg11.dtd">
<!-- Generated by graphviz version 2.47.0 (20210316.0004)
 -->
<!-- Title: dependencies Pages: 1 -->
<svg width="646pt" height="211pt"
 viewBox="0.00 0.00 646.00 211.00" xmlns="http://www.w3.org/2000/svg" xmlns:xlink="http://www.w3.org/1999/xlink">
<g id="graph0" class="graph" transform="scale(1 1) rotate(0) translate(4 207)">
<title>dependencies</title>
<polygon fill="white" stroke="transparent" points="-4,4 -4,-207 642,-207 642,4 -4,4"/>
<text text-anchor="start" x="298.01" y="-42.4" font-family="Times-12" font-weight="bold" font-size="14.00">Legend</text>
<polygon fill="#ffffb3" stroke="transparent" points="85,-10 85,-30 105,-30 105,-10 85,-10"/>
<text text-anchor="start" x="108.63" y="-15.4" font-family="Times-12" font-size="14.00"> &#160;Declarations</text>
<polygon fill="#8dd3c7" stroke="transparent" points="198,-10 198,-30 218,-30 218,-10 198,-10"/>
<text text-anchor="start" x="221.73" y="-15.4" font-family="Times-12" font-size="14.00"> &#160;Module</text>
<polygon fill="#80b1d3" stroke="transparent" points="284,-10 284,-30 304,-30 304,-10 284,-10"/>
<text text-anchor="start" x="307.78" y="-15.4" font-family="Times-12" font-size="14.00"> &#160;Bootstrap</text>
<polygon fill="#fdb462" stroke="transparent" points="381,-10 381,-30 401,-30 401,-10 381,-10"/>
<text text-anchor="start" x="404.67" y="-15.4" font-family="Times-12" font-size="14.00"> &#160;Providers</text>
<polygon fill="#fb8072" stroke="transparent" points="477,-10 477,-30 497,-30 497,-10 477,-10"/>
<text text-anchor="start" x="500.73" y="-15.4" font-family="Times-12" font-size="14.00"> &#160;Exports</text>
<g id="clust1" class="cluster">
<title>cluster_CwDeviceOwnersModule</title>
<polygon fill="none" stroke="black" stroke-dasharray="1,5" points="8,-70 8,-195 630,-195 630,-70 8,-70"/>
</g>
<g id="clust6" class="cluster">
<title>cluster_CwDeviceOwnersModule_providers</title>
<polygon fill="none" stroke="black" points="152,-78 152,-130 622,-130 622,-78 152,-78"/>
</g>
<g id="clust3" class="cluster">
<title>cluster_CwDeviceOwnersModule_imports</title>
<polygon fill="none" stroke="black" points="16,-78 16,-130 144,-130 144,-78 16,-78"/>
</g>
<!-- SupabaseModule -->
<g id="node1" class="node">
<title>SupabaseModule</title>
<polygon fill="#8dd3c7" stroke="black" points="136.42,-122 133.42,-126 112.42,-126 109.42,-122 23.58,-122 23.58,-86 136.42,-86 136.42,-122"/>
<text text-anchor="middle" x="80" y="-99.8" font-family="Times,serif" font-size="14.00">SupabaseModule</text>
</g>
<!-- CwDeviceOwnersModule -->
<g id="node2" class="node">
<title>CwDeviceOwnersModule</title>
<polygon fill="#8dd3c7" stroke="black" points="348.17,-187 345.17,-191 324.17,-191 321.17,-187 185.83,-187 185.83,-151 348.17,-151 348.17,-187"/>
<text text-anchor="middle" x="267" y="-164.8" font-family="Times,serif" font-size="14.00">CwDeviceOwnersModule</text>
</g>
<!-- SupabaseModule&#45;&gt;CwDeviceOwnersModule -->
<g id="edge1" class="edge">
<title>SupabaseModule&#45;&gt;CwDeviceOwnersModule</title>
<path fill="none" stroke="black" d="M80,-122.11C80,-141.34 80,-169 80,-169 80,-169 175.79,-169 175.79,-169"/>
<polygon fill="black" stroke="black" points="175.79,-172.5 185.79,-169 175.79,-165.5 175.79,-172.5"/>
</g>
<!-- CwDeviceOwnersService -->
<g id="node3" class="node">
<title>CwDeviceOwnersService</title>
<ellipse fill="#fdb462" stroke="black" cx="503" cy="-104" rx="110.55" ry="18"/>
<text text-anchor="middle" x="503" y="-99.8" font-family="Times,serif" font-size="14.00">CwDeviceOwnersService</text>
</g>
<!-- CwDeviceOwnersService&#45;&gt;CwDeviceOwnersModule -->
<g id="edge2" class="edge">
<title>CwDeviceOwnersService&#45;&gt;CwDeviceOwnersModule</title>
<path fill="none" stroke="black" d="M503,-122.11C503,-141.34 503,-169 503,-169 503,-169 358.22,-169 358.22,-169"/>
<polygon fill="black" stroke="black" points="358.22,-165.5 348.22,-169 358.22,-172.5 358.22,-165.5"/>
</g>
<!-- DeviceOwnerRepository -->
<g id="node4" class="node">
<title>DeviceOwnerRepository</title>
<ellipse fill="#fdb462" stroke="black" cx="267" cy="-104" rx="107.06" ry="18"/>
<text text-anchor="middle" x="267" y="-99.8" font-family="Times,serif" font-size="14.00">DeviceOwnerRepository</text>
</g>
<!-- DeviceOwnerRepository&#45;&gt;CwDeviceOwnersModule -->
<g id="edge3" class="edge">
<title>DeviceOwnerRepository&#45;&gt;CwDeviceOwnersModule</title>
<path fill="none" stroke="black" d="M267,-122.11C267,-122.11 267,-140.99 267,-140.99"/>
<polygon fill="black" stroke="black" points="263.5,-140.99 267,-150.99 270.5,-140.99 263.5,-140.99"/>
</g>
</g>
</svg>
