<?xml version="1.0" encoding="UTF-8" standalone="no"?>
<!DOCTYPE svg PUBLIC "-//W3C//DTD SVG 1.1//EN"
 "http://www.w3.org/Graphics/SVG/1.1/DTD/svg11.dtd">
<!-- Generated by graphviz version 2.47.0 (20210316.0004)
 -->
<!-- Title: dependencies Pages: 1 -->
<svg width="776pt" height="284pt"
 viewBox="0.00 0.00 776.00 284.00" xmlns="http://www.w3.org/2000/svg" xmlns:xlink="http://www.w3.org/1999/xlink">
<g id="graph0" class="graph" transform="scale(1 1) rotate(0) translate(4 280)">
<title>dependencies</title>
<polygon fill="white" stroke="transparent" points="-4,4 -4,-280 772,-280 772,4 -4,4"/>
<text text-anchor="start" x="363.01" y="-42.4" font-family="Times-12" font-weight="bold" font-size="14.00">Legend</text>
<polygon fill="#ffffb3" stroke="transparent" points="150,-10 150,-30 170,-30 170,-10 150,-10"/>
<text text-anchor="start" x="173.63" y="-15.4" font-family="Times-12" font-size="14.00"> &#160;Declarations</text>
<polygon fill="#8dd3c7" stroke="transparent" points="263,-10 263,-30 283,-30 283,-10 263,-10"/>
<text text-anchor="start" x="286.73" y="-15.4" font-family="Times-12" font-size="14.00"> &#160;Module</text>
<polygon fill="#80b1d3" stroke="transparent" points="349,-10 349,-30 369,-30 369,-10 349,-10"/>
<text text-anchor="start" x="372.78" y="-15.4" font-family="Times-12" font-size="14.00"> &#160;Bootstrap</text>
<polygon fill="#fdb462" stroke="transparent" points="446,-10 446,-30 466,-30 466,-10 446,-10"/>
<text text-anchor="start" x="469.67" y="-15.4" font-family="Times-12" font-size="14.00"> &#160;Providers</text>
<polygon fill="#fb8072" stroke="transparent" points="542,-10 542,-30 562,-30 562,-10 542,-10"/>
<text text-anchor="start" x="565.73" y="-15.4" font-family="Times-12" font-size="14.00"> &#160;Exports</text>
<g id="clust1" class="cluster">
<title>cluster_ReportsTemplatesModule</title>
<polygon fill="none" stroke="black" stroke-dasharray="1,5" points="8,-70 8,-268 760,-268 760,-70 8,-70"/>
</g>
<g id="clust4" class="cluster">
<title>cluster_ReportsTemplatesModule_exports</title>
<polygon fill="none" stroke="black" points="197,-208 197,-260 377,-260 377,-208 197,-208"/>
</g>
<g id="clust6" class="cluster">
<title>cluster_ReportsTemplatesModule_providers</title>
<polygon fill="none" stroke="black" points="258,-78 258,-130 752,-130 752,-78 258,-78"/>
</g>
<g id="clust3" class="cluster">
<title>cluster_ReportsTemplatesModule_imports</title>
<polygon fill="none" stroke="black" points="16,-78 16,-130 250,-130 250,-78 16,-78"/>
</g>
<!-- AuthModule -->
<g id="node1" class="node">
<title>AuthModule</title>
<polygon fill="#8dd3c7" stroke="black" points="241.55,-122 238.55,-126 217.55,-126 214.55,-122 154.45,-122 154.45,-86 241.55,-86 241.55,-122"/>
<text text-anchor="middle" x="198" y="-99.8" font-family="Times,serif" font-size="14.00">AuthModule</text>
</g>
<!-- ReportsTemplatesModule -->
<g id="node3" class="node">
<title>ReportsTemplatesModule</title>
<polygon fill="#8dd3c7" stroke="black" points="367.91,-187 364.91,-191 343.91,-191 340.91,-187 206.09,-187 206.09,-151 367.91,-151 367.91,-187"/>
<text text-anchor="middle" x="287" y="-164.8" font-family="Times,serif" font-size="14.00">ReportsTemplatesModule</text>
</g>
<!-- AuthModule&#45;&gt;ReportsTemplatesModule -->
<g id="edge1" class="edge">
<title>AuthModule&#45;&gt;ReportsTemplatesModule</title>
<path fill="none" stroke="black" d="M224.03,-122.11C224.03,-122.11 224.03,-140.99 224.03,-140.99"/>
<polygon fill="black" stroke="black" points="220.53,-140.99 224.03,-150.99 227.53,-140.99 220.53,-140.99"/>
</g>
<!-- SupabaseModule -->
<g id="node2" class="node">
<title>SupabaseModule</title>
<polygon fill="#8dd3c7" stroke="black" points="136.42,-122 133.42,-126 112.42,-126 109.42,-122 23.58,-122 23.58,-86 136.42,-86 136.42,-122"/>
<text text-anchor="middle" x="80" y="-99.8" font-family="Times,serif" font-size="14.00">SupabaseModule</text>
</g>
<!-- SupabaseModule&#45;&gt;ReportsTemplatesModule -->
<g id="edge2" class="edge">
<title>SupabaseModule&#45;&gt;ReportsTemplatesModule</title>
<path fill="none" stroke="black" d="M80,-122.11C80,-141.34 80,-169 80,-169 80,-169 196.08,-169 196.08,-169"/>
<polygon fill="black" stroke="black" points="196.08,-172.5 206.08,-169 196.08,-165.5 196.08,-172.5"/>
</g>
<!-- ReportsTemplatesService  -->
<g id="node4" class="node">
<title>ReportsTemplatesService </title>
<polygon fill="#fb8072" stroke="black" points="368.84,-252 205.16,-252 205.16,-216 368.84,-216 368.84,-252"/>
<text text-anchor="middle" x="287" y="-229.8" font-family="Times,serif" font-size="14.00">ReportsTemplatesService </text>
</g>
<!-- ReportsTemplatesModule&#45;&gt;ReportsTemplatesService  -->
<g id="edge3" class="edge">
<title>ReportsTemplatesModule&#45;&gt;ReportsTemplatesService </title>
<path fill="none" stroke="black" stroke-dasharray="5,2" d="M287,-187.11C287,-187.11 287,-205.99 287,-205.99"/>
<polygon fill="black" stroke="black" points="283.5,-205.99 287,-215.99 290.5,-205.99 283.5,-205.99"/>
</g>
<!-- ReportTemplatesRepository -->
<g id="node5" class="node">
<title>ReportTemplatesRepository</title>
<ellipse fill="#fdb462" stroke="black" cx="624" cy="-104" rx="119.84" ry="18"/>
<text text-anchor="middle" x="624" y="-99.8" font-family="Times,serif" font-size="14.00">ReportTemplatesRepository</text>
</g>
<!-- ReportTemplatesRepository&#45;&gt;ReportsTemplatesModule -->
<g id="edge4" class="edge">
<title>ReportTemplatesRepository&#45;&gt;ReportsTemplatesModule</title>
<path fill="none" stroke="black" d="M624,-122.11C624,-141.34 624,-169 624,-169 624,-169 377.72,-169 377.72,-169"/>
<polygon fill="black" stroke="black" points="377.72,-165.5 367.72,-169 377.72,-172.5 377.72,-165.5"/>
</g>
<!-- ReportsTemplatesService -->
<g id="node6" class="node">
<title>ReportsTemplatesService</title>
<ellipse fill="#fdb462" stroke="black" cx="376" cy="-104" rx="110.01" ry="18"/>
<text text-anchor="middle" x="376" y="-99.8" font-family="Times,serif" font-size="14.00">ReportsTemplatesService</text>
</g>
<!-- ReportsTemplatesService&#45;&gt;ReportsTemplatesModule -->
<g id="edge5" class="edge">
<title>ReportsTemplatesService&#45;&gt;ReportsTemplatesModule</title>
<path fill="none" stroke="black" d="M316.73,-119.4C316.73,-119.4 316.73,-140.94 316.73,-140.94"/>
<polygon fill="black" stroke="black" points="313.23,-140.94 316.73,-150.94 320.23,-140.94 313.23,-140.94"/>
</g>
</g>
</svg>
