<?xml version="1.0" encoding="UTF-8" standalone="no"?>
<!DOCTYPE svg PUBLIC "-//W3C//DTD SVG 1.1//EN"
 "http://www.w3.org/Graphics/SVG/1.1/DTD/svg11.dtd">
<!-- Generated by graphviz version 2.47.0 (20210316.0004)
 -->
<!-- Title: dependencies Pages: 1 -->
<svg width="647pt" height="284pt"
 viewBox="0.00 0.00 647.00 284.00" xmlns="http://www.w3.org/2000/svg" xmlns:xlink="http://www.w3.org/1999/xlink">
<g id="graph0" class="graph" transform="scale(1 1) rotate(0) translate(4 280)">
<title>dependencies</title>
<polygon fill="white" stroke="transparent" points="-4,4 -4,-280 643,-280 643,4 -4,4"/>
<text text-anchor="start" x="298.51" y="-42.4" font-family="Times-12" font-weight="bold" font-size="14.00">Legend</text>
<polygon fill="#ffffb3" stroke="transparent" points="85.5,-10 85.5,-30 105.5,-30 105.5,-10 85.5,-10"/>
<text text-anchor="start" x="109.13" y="-15.4" font-family="Times-12" font-size="14.00"> &#160;Declarations</text>
<polygon fill="#8dd3c7" stroke="transparent" points="198.5,-10 198.5,-30 218.5,-30 218.5,-10 198.5,-10"/>
<text text-anchor="start" x="222.23" y="-15.4" font-family="Times-12" font-size="14.00"> &#160;Module</text>
<polygon fill="#80b1d3" stroke="transparent" points="284.5,-10 284.5,-30 304.5,-30 304.5,-10 284.5,-10"/>
<text text-anchor="start" x="308.28" y="-15.4" font-family="Times-12" font-size="14.00"> &#160;Bootstrap</text>
<polygon fill="#fdb462" stroke="transparent" points="381.5,-10 381.5,-30 401.5,-30 401.5,-10 381.5,-10"/>
<text text-anchor="start" x="405.17" y="-15.4" font-family="Times-12" font-size="14.00"> &#160;Providers</text>
<polygon fill="#fb8072" stroke="transparent" points="477.5,-10 477.5,-30 497.5,-30 497.5,-10 477.5,-10"/>
<text text-anchor="start" x="501.23" y="-15.4" font-family="Times-12" font-size="14.00"> &#160;Exports</text>
<g id="clust1" class="cluster">
<title>cluster_CwDevicesModule</title>
<polygon fill="none" stroke="black" stroke-dasharray="1,5" points="8,-70 8,-268 631,-268 631,-70 8,-70"/>
</g>
<g id="clust3" class="cluster">
<title>cluster_CwDevicesModule_imports</title>
<polygon fill="none" stroke="black" points="389,-78 389,-130 623,-130 623,-78 389,-78"/>
</g>
<g id="clust6" class="cluster">
<title>cluster_CwDevicesModule_providers</title>
<polygon fill="none" stroke="black" points="16,-78 16,-130 381,-130 381,-78 16,-78"/>
</g>
<g id="clust4" class="cluster">
<title>cluster_CwDevicesModule_exports</title>
<polygon fill="none" stroke="black" points="299,-208 299,-260 441,-260 441,-208 299,-208"/>
</g>
<!-- AuthModule -->
<g id="node1" class="node">
<title>AuthModule</title>
<polygon fill="#8dd3c7" stroke="black" points="614.55,-122 611.55,-126 590.55,-126 587.55,-122 527.45,-122 527.45,-86 614.55,-86 614.55,-122"/>
<text text-anchor="middle" x="571" y="-99.8" font-family="Times,serif" font-size="14.00">AuthModule</text>
</g>
<!-- CwDevicesModule -->
<g id="node3" class="node">
<title>CwDevicesModule</title>
<polygon fill="#8dd3c7" stroke="black" points="432.08,-187 429.08,-191 408.08,-191 405.08,-187 307.92,-187 307.92,-151 432.08,-151 432.08,-187"/>
<text text-anchor="middle" x="370" y="-164.8" font-family="Times,serif" font-size="14.00">CwDevicesModule</text>
</g>
<!-- AuthModule&#45;&gt;CwDevicesModule -->
<g id="edge1" class="edge">
<title>AuthModule&#45;&gt;CwDevicesModule</title>
<path fill="none" stroke="black" d="M571,-122.11C571,-141.34 571,-169 571,-169 571,-169 442.22,-169 442.22,-169"/>
<polygon fill="black" stroke="black" points="442.22,-165.5 432.22,-169 442.22,-172.5 442.22,-165.5"/>
</g>
<!-- SupabaseModule -->
<g id="node2" class="node">
<title>SupabaseModule</title>
<polygon fill="#8dd3c7" stroke="black" points="509.42,-122 506.42,-126 485.42,-126 482.42,-122 396.58,-122 396.58,-86 509.42,-86 509.42,-122"/>
<text text-anchor="middle" x="453" y="-99.8" font-family="Times,serif" font-size="14.00">SupabaseModule</text>
</g>
<!-- SupabaseModule&#45;&gt;CwDevicesModule -->
<g id="edge2" class="edge">
<title>SupabaseModule&#45;&gt;CwDevicesModule</title>
<path fill="none" stroke="black" d="M414.41,-122.11C414.41,-122.11 414.41,-140.99 414.41,-140.99"/>
<polygon fill="black" stroke="black" points="410.91,-140.99 414.41,-150.99 417.91,-140.99 410.91,-140.99"/>
</g>
<!-- CwDevicesService  -->
<g id="node4" class="node">
<title>CwDevicesService </title>
<polygon fill="#fb8072" stroke="black" points="433.01,-252 306.99,-252 306.99,-216 433.01,-216 433.01,-252"/>
<text text-anchor="middle" x="370" y="-229.8" font-family="Times,serif" font-size="14.00">CwDevicesService </text>
</g>
<!-- CwDevicesModule&#45;&gt;CwDevicesService  -->
<g id="edge3" class="edge">
<title>CwDevicesModule&#45;&gt;CwDevicesService </title>
<path fill="none" stroke="black" stroke-dasharray="5,2" d="M370,-187.11C370,-187.11 370,-205.99 370,-205.99"/>
<polygon fill="black" stroke="black" points="366.5,-205.99 370,-215.99 373.5,-205.99 366.5,-205.99"/>
</g>
<!-- CwDevicesService -->
<g id="node5" class="node">
<title>CwDevicesService</title>
<ellipse fill="#fdb462" stroke="black" cx="288" cy="-104" rx="84.51" ry="18"/>
<text text-anchor="middle" x="288" y="-99.8" font-family="Times,serif" font-size="14.00">CwDevicesService</text>
</g>
<!-- CwDevicesService&#45;&gt;CwDevicesModule -->
<g id="edge4" class="edge">
<title>CwDevicesService&#45;&gt;CwDevicesModule</title>
<path fill="none" stroke="black" d="M340.23,-118.43C340.23,-118.43 340.23,-140.89 340.23,-140.89"/>
<polygon fill="black" stroke="black" points="336.73,-140.89 340.23,-150.89 343.73,-140.89 336.73,-140.89"/>
</g>
<!-- DeviceRepository -->
<g id="node6" class="node">
<title>DeviceRepository</title>
<ellipse fill="#fdb462" stroke="black" cx="105" cy="-104" rx="80.52" ry="18"/>
<text text-anchor="middle" x="105" y="-99.8" font-family="Times,serif" font-size="14.00">DeviceRepository</text>
</g>
<!-- DeviceRepository&#45;&gt;CwDevicesModule -->
<g id="edge5" class="edge">
<title>DeviceRepository&#45;&gt;CwDevicesModule</title>
<path fill="none" stroke="black" d="M105,-122.11C105,-141.34 105,-169 105,-169 105,-169 297.87,-169 297.87,-169"/>
<polygon fill="black" stroke="black" points="297.87,-172.5 307.87,-169 297.87,-165.5 297.87,-172.5"/>
</g>
</g>
</svg>
