<?xml version="1.0" encoding="UTF-8" standalone="no"?>
<!DOCTYPE svg PUBLIC "-//W3C//DTD SVG 1.1//EN"
 "http://www.w3.org/Graphics/SVG/1.1/DTD/svg11.dtd">
<!-- Generated by graphviz version 2.47.0 (20210316.0004)
 -->
<!-- Title: dependencies Pages: 1 -->
<svg width="1461pt" height="211pt"
 viewBox="0.00 0.00 1461.00 211.00" xmlns="http://www.w3.org/2000/svg" xmlns:xlink="http://www.w3.org/1999/xlink">
<g id="graph0" class="graph" transform="scale(1 1) rotate(0) translate(4 207)">
<title>dependencies</title>
<polygon fill="white" stroke="transparent" points="-4,4 -4,-207 1457,-207 1457,4 -4,4"/>
<text text-anchor="start" x="705.51" y="-42.4" font-family="Times-12" font-weight="bold" font-size="14.00">Legend</text>
<polygon fill="#ffffb3" stroke="transparent" points="492.5,-10 492.5,-30 512.5,-30 512.5,-10 492.5,-10"/>
<text text-anchor="start" x="516.13" y="-15.4" font-family="Times-12" font-size="14.00"> &#160;Declarations</text>
<polygon fill="#8dd3c7" stroke="transparent" points="605.5,-10 605.5,-30 625.5,-30 625.5,-10 605.5,-10"/>
<text text-anchor="start" x="629.23" y="-15.4" font-family="Times-12" font-size="14.00"> &#160;Module</text>
<polygon fill="#80b1d3" stroke="transparent" points="691.5,-10 691.5,-30 711.5,-30 711.5,-10 691.5,-10"/>
<text text-anchor="start" x="715.28" y="-15.4" font-family="Times-12" font-size="14.00"> &#160;Bootstrap</text>
<polygon fill="#fdb462" stroke="transparent" points="788.5,-10 788.5,-30 808.5,-30 808.5,-10 788.5,-10"/>
<text text-anchor="start" x="812.17" y="-15.4" font-family="Times-12" font-size="14.00"> &#160;Providers</text>
<polygon fill="#fb8072" stroke="transparent" points="884.5,-10 884.5,-30 904.5,-30 904.5,-10 884.5,-10"/>
<text text-anchor="start" x="908.23" y="-15.4" font-family="Times-12" font-size="14.00"> &#160;Exports</text>
<g id="clust1" class="cluster">
<title>cluster_AppModule</title>
<polygon fill="none" stroke="black" stroke-dasharray="1,5" points="8,-70 8,-195 1445,-195 1445,-70 8,-70"/>
</g>
<g id="clust3" class="cluster">
<title>cluster_AppModule_imports</title>
<polygon fill="none" stroke="black" points="158,-78 158,-130 1437,-130 1437,-78 158,-78"/>
</g>
<g id="clust6" class="cluster">
<title>cluster_AppModule_providers</title>
<polygon fill="none" stroke="black" points="16,-78 16,-130 150,-130 150,-78 16,-78"/>
</g>
<!-- AuthModule -->
<g id="node1" class="node">
<title>AuthModule</title>
<polygon fill="#8dd3c7" stroke="black" points="1428.55,-122 1425.55,-126 1404.55,-126 1401.55,-122 1341.45,-122 1341.45,-86 1428.55,-86 1428.55,-122"/>
<text text-anchor="middle" x="1385" y="-99.8" font-family="Times,serif" font-size="14.00">AuthModule</text>
</g>
<!-- AppModule -->
<g id="node11" class="node">
<title>AppModule</title>
<polygon fill="#8dd3c7" stroke="black" points="744.66,-187 741.66,-191 720.66,-191 717.66,-187 661.34,-187 661.34,-151 744.66,-151 744.66,-187"/>
<text text-anchor="middle" x="703" y="-164.8" font-family="Times,serif" font-size="14.00">AppModule</text>
</g>
<!-- AuthModule&#45;&gt;AppModule -->
<g id="edge1" class="edge">
<title>AuthModule&#45;&gt;AppModule</title>
<path fill="none" stroke="black" d="M1385,-122.09C1385,-145.13 1385,-182 1385,-182 1385,-182 754.89,-182 754.89,-182"/>
<polygon fill="black" stroke="black" points="754.89,-178.5 744.89,-182 754.89,-185.5 754.89,-178.5"/>
</g>
<!-- CwDeviceOwnersModule -->
<g id="node2" class="node">
<title>CwDeviceOwnersModule</title>
<polygon fill="#8dd3c7" stroke="black" points="1323.17,-122 1320.17,-126 1299.17,-126 1296.17,-122 1160.83,-122 1160.83,-86 1323.17,-86 1323.17,-122"/>
<text text-anchor="middle" x="1242" y="-99.8" font-family="Times,serif" font-size="14.00">CwDeviceOwnersModule</text>
</g>
<!-- CwDeviceOwnersModule&#45;&gt;AppModule -->
<g id="edge2" class="edge">
<title>CwDeviceOwnersModule&#45;&gt;AppModule</title>
<path fill="none" stroke="black" d="M1242,-122.28C1242,-143.32 1242,-175 1242,-175 1242,-175 754.85,-175 754.85,-175"/>
<polygon fill="black" stroke="black" points="754.85,-171.5 744.85,-175 754.85,-178.5 754.85,-171.5"/>
</g>
<!-- CwDevicesModule -->
<g id="node3" class="node">
<title>CwDevicesModule</title>
<polygon fill="#8dd3c7" stroke="black" points="1143.08,-122 1140.08,-126 1119.08,-126 1116.08,-122 1018.92,-122 1018.92,-86 1143.08,-86 1143.08,-122"/>
<text text-anchor="middle" x="1081" y="-99.8" font-family="Times,serif" font-size="14.00">CwDevicesModule</text>
</g>
<!-- CwDevicesModule&#45;&gt;AppModule -->
<g id="edge3" class="edge">
<title>CwDevicesModule&#45;&gt;AppModule</title>
<path fill="none" stroke="black" d="M1081,-122.11C1081,-141.34 1081,-169 1081,-169 1081,-169 754.9,-169 754.9,-169"/>
<polygon fill="black" stroke="black" points="754.9,-165.5 744.9,-169 754.9,-172.5 754.9,-165.5"/>
</g>
<!-- DataModule -->
<g id="node4" class="node">
<title>DataModule</title>
<polygon fill="#8dd3c7" stroke="black" points="1000.98,-122 997.98,-126 976.98,-126 973.98,-122 915.02,-122 915.02,-86 1000.98,-86 1000.98,-122"/>
<text text-anchor="middle" x="958" y="-99.8" font-family="Times,serif" font-size="14.00">DataModule</text>
</g>
<!-- DataModule&#45;&gt;AppModule -->
<g id="edge4" class="edge">
<title>DataModule&#45;&gt;AppModule</title>
<path fill="none" stroke="black" d="M958,-122.02C958,-139.37 958,-163 958,-163 958,-163 754.82,-163 754.82,-163"/>
<polygon fill="black" stroke="black" points="754.82,-159.5 744.82,-163 754.82,-166.5 754.82,-159.5"/>
</g>
<!-- GeolocationModule -->
<g id="node5" class="node">
<title>GeolocationModule</title>
<polygon fill="#8dd3c7" stroke="black" points="896.97,-122 893.97,-126 872.97,-126 869.97,-122 769.03,-122 769.03,-86 896.97,-86 896.97,-122"/>
<text text-anchor="middle" x="833" y="-99.8" font-family="Times,serif" font-size="14.00">GeolocationModule</text>
</g>
<!-- GeolocationModule&#45;&gt;AppModule -->
<g id="edge5" class="edge">
<title>GeolocationModule&#45;&gt;AppModule</title>
<path fill="none" stroke="black" d="M833,-122.24C833,-137.57 833,-157 833,-157 833,-157 754.85,-157 754.85,-157"/>
<polygon fill="black" stroke="black" points="754.85,-153.5 744.85,-157 754.85,-160.5 754.85,-153.5"/>
</g>
<!-- HealthModule -->
<g id="node6" class="node">
<title>HealthModule</title>
<polygon fill="#8dd3c7" stroke="black" points="751.37,-122 748.37,-126 727.37,-126 724.37,-122 654.63,-122 654.63,-86 751.37,-86 751.37,-122"/>
<text text-anchor="middle" x="703" y="-99.8" font-family="Times,serif" font-size="14.00">HealthModule</text>
</g>
<!-- HealthModule&#45;&gt;AppModule -->
<g id="edge6" class="edge">
<title>HealthModule&#45;&gt;AppModule</title>
<path fill="none" stroke="black" d="M703,-122.11C703,-122.11 703,-140.99 703,-140.99"/>
<polygon fill="black" stroke="black" points="699.5,-140.99 703,-150.99 706.5,-140.99 699.5,-140.99"/>
</g>
<!-- LocationModule -->
<g id="node7" class="node">
<title>LocationModule</title>
<polygon fill="#8dd3c7" stroke="black" points="636.81,-122 633.81,-126 612.81,-126 609.81,-122 527.19,-122 527.19,-86 636.81,-86 636.81,-122"/>
<text text-anchor="middle" x="582" y="-99.8" font-family="Times,serif" font-size="14.00">LocationModule</text>
</g>
<!-- LocationModule&#45;&gt;AppModule -->
<g id="edge7" class="edge">
<title>LocationModule&#45;&gt;AppModule</title>
<path fill="none" stroke="black" d="M582,-122.24C582,-137.57 582,-157 582,-157 582,-157 651.02,-157 651.02,-157"/>
<polygon fill="black" stroke="black" points="651.02,-160.5 661.02,-157 651.02,-153.5 651.02,-160.5"/>
</g>
<!-- ProfilesModule -->
<g id="node8" class="node">
<title>ProfilesModule</title>
<polygon fill="#8dd3c7" stroke="black" points="509.59,-122 506.59,-126 485.59,-126 482.59,-122 406.41,-122 406.41,-86 509.59,-86 509.59,-122"/>
<text text-anchor="middle" x="458" y="-99.8" font-family="Times,serif" font-size="14.00">ProfilesModule</text>
</g>
<!-- ProfilesModule&#45;&gt;AppModule -->
<g id="edge8" class="edge">
<title>ProfilesModule&#45;&gt;AppModule</title>
<path fill="none" stroke="black" d="M458,-122.02C458,-139.37 458,-163 458,-163 458,-163 651.16,-163 651.16,-163"/>
<polygon fill="black" stroke="black" points="651.16,-166.5 661.16,-163 651.16,-159.5 651.16,-166.5"/>
</g>
<!-- RelayModule -->
<g id="node9" class="node">
<title>RelayModule</title>
<polygon fill="#8dd3c7" stroke="black" points="388.21,-122 385.21,-126 364.21,-126 361.21,-122 295.79,-122 295.79,-86 388.21,-86 388.21,-122"/>
<text text-anchor="middle" x="342" y="-99.8" font-family="Times,serif" font-size="14.00">RelayModule</text>
</g>
<!-- RelayModule&#45;&gt;AppModule -->
<g id="edge9" class="edge">
<title>RelayModule&#45;&gt;AppModule</title>
<path fill="none" stroke="black" d="M342,-122.11C342,-141.34 342,-169 342,-169 342,-169 651.24,-169 651.24,-169"/>
<polygon fill="black" stroke="black" points="651.24,-172.5 661.24,-169 651.24,-165.5 651.24,-172.5"/>
</g>
<!-- SupabaseModule -->
<g id="node10" class="node">
<title>SupabaseModule</title>
<polygon fill="#8dd3c7" stroke="black" points="278.42,-122 275.42,-126 254.42,-126 251.42,-122 165.58,-122 165.58,-86 278.42,-86 278.42,-122"/>
<text text-anchor="middle" x="222" y="-99.8" font-family="Times,serif" font-size="14.00">SupabaseModule</text>
</g>
<!-- SupabaseModule&#45;&gt;AppModule -->
<g id="edge10" class="edge">
<title>SupabaseModule&#45;&gt;AppModule</title>
<path fill="none" stroke="black" d="M222,-122.28C222,-143.32 222,-175 222,-175 222,-175 651.16,-175 651.16,-175"/>
<polygon fill="black" stroke="black" points="651.16,-178.5 661.16,-175 651.16,-171.5 651.16,-178.5"/>
</g>
<!-- AuthService -->
<g id="node12" class="node">
<title>AuthService</title>
<ellipse fill="#fdb462" stroke="black" cx="83" cy="-104" rx="59.11" ry="18"/>
<text text-anchor="middle" x="83" y="-99.8" font-family="Times,serif" font-size="14.00">AuthService</text>
</g>
<!-- AuthService&#45;&gt;AppModule -->
<g id="edge11" class="edge">
<title>AuthService&#45;&gt;AppModule</title>
<path fill="none" stroke="black" d="M83,-122.09C83,-145.13 83,-182 83,-182 83,-182 650.87,-182 650.87,-182"/>
<polygon fill="black" stroke="black" points="650.87,-185.5 660.87,-182 650.87,-178.5 650.87,-185.5"/>
</g>
</g>
</svg>
