<?xml version="1.0" encoding="UTF-8" standalone="no"?>
<!DOCTYPE svg PUBLIC "-//W3C//DTD SVG 1.1//EN"
 "http://www.w3.org/Graphics/SVG/1.1/DTD/svg11.dtd">
<!-- Generated by graphviz version 2.47.0 (20210316.0004)
 -->
<!-- Title: dependencies Pages: 1 -->
<svg width="719pt" height="284pt"
 viewBox="0.00 0.00 719.00 284.00" xmlns="http://www.w3.org/2000/svg" xmlns:xlink="http://www.w3.org/1999/xlink">
<g id="graph0" class="graph" transform="scale(1 1) rotate(0) translate(4 280)">
<title>dependencies</title>
<polygon fill="white" stroke="transparent" points="-4,4 -4,-280 715,-280 715,4 -4,4"/>
<text text-anchor="start" x="334.51" y="-42.4" font-family="Times-12" font-weight="bold" font-size="14.00">Legend</text>
<polygon fill="#ffffb3" stroke="transparent" points="121.5,-10 121.5,-30 141.5,-30 141.5,-10 121.5,-10"/>
<text text-anchor="start" x="145.13" y="-15.4" font-family="Times-12" font-size="14.00"> &#160;Declarations</text>
<polygon fill="#8dd3c7" stroke="transparent" points="234.5,-10 234.5,-30 254.5,-30 254.5,-10 234.5,-10"/>
<text text-anchor="start" x="258.23" y="-15.4" font-family="Times-12" font-size="14.00"> &#160;Module</text>
<polygon fill="#80b1d3" stroke="transparent" points="320.5,-10 320.5,-30 340.5,-30 340.5,-10 320.5,-10"/>
<text text-anchor="start" x="344.28" y="-15.4" font-family="Times-12" font-size="14.00"> &#160;Bootstrap</text>
<polygon fill="#fdb462" stroke="transparent" points="417.5,-10 417.5,-30 437.5,-30 437.5,-10 417.5,-10"/>
<text text-anchor="start" x="441.17" y="-15.4" font-family="Times-12" font-size="14.00"> &#160;Providers</text>
<polygon fill="#fb8072" stroke="transparent" points="513.5,-10 513.5,-30 533.5,-30 533.5,-10 513.5,-10"/>
<text text-anchor="start" x="537.23" y="-15.4" font-family="Times-12" font-size="14.00"> &#160;Exports</text>
<g id="clust1" class="cluster">
<title>cluster_CwDeviceTypeModule</title>
<polygon fill="none" stroke="black" stroke-dasharray="1,5" points="8,-70 8,-268 703,-268 703,-70 8,-70"/>
</g>
<g id="clust3" class="cluster">
<title>cluster_CwDeviceTypeModule_imports</title>
<polygon fill="none" stroke="black" points="461,-78 461,-130 695,-130 695,-78 461,-78"/>
</g>
<g id="clust4" class="cluster">
<title>cluster_CwDeviceTypeModule_exports</title>
<polygon fill="none" stroke="black" points="351,-208 351,-260 517,-260 517,-208 351,-208"/>
</g>
<g id="clust6" class="cluster">
<title>cluster_CwDeviceTypeModule_providers</title>
<polygon fill="none" stroke="black" points="16,-78 16,-130 453,-130 453,-78 16,-78"/>
</g>
<!-- AuthModule -->
<g id="node1" class="node">
<title>AuthModule</title>
<polygon fill="#8dd3c7" stroke="black" points="686.55,-122 683.55,-126 662.55,-126 659.55,-122 599.45,-122 599.45,-86 686.55,-86 686.55,-122"/>
<text text-anchor="middle" x="643" y="-99.8" font-family="Times,serif" font-size="14.00">AuthModule</text>
</g>
<!-- CwDeviceTypeModule -->
<g id="node3" class="node">
<title>CwDeviceTypeModule</title>
<polygon fill="#8dd3c7" stroke="black" points="507.9,-187 504.9,-191 483.9,-191 480.9,-187 360.1,-187 360.1,-151 507.9,-151 507.9,-187"/>
<text text-anchor="middle" x="434" y="-164.8" font-family="Times,serif" font-size="14.00">CwDeviceTypeModule</text>
</g>
<!-- AuthModule&#45;&gt;CwDeviceTypeModule -->
<g id="edge1" class="edge">
<title>AuthModule&#45;&gt;CwDeviceTypeModule</title>
<path fill="none" stroke="black" d="M643,-122.11C643,-141.34 643,-169 643,-169 643,-169 517.98,-169 517.98,-169"/>
<polygon fill="black" stroke="black" points="517.98,-165.5 507.98,-169 517.98,-172.5 517.98,-165.5"/>
</g>
<!-- SupabaseModule -->
<g id="node2" class="node">
<title>SupabaseModule</title>
<polygon fill="#8dd3c7" stroke="black" points="581.42,-122 578.42,-126 557.42,-126 554.42,-122 468.58,-122 468.58,-86 581.42,-86 581.42,-122"/>
<text text-anchor="middle" x="525" y="-99.8" font-family="Times,serif" font-size="14.00">SupabaseModule</text>
</g>
<!-- SupabaseModule&#45;&gt;CwDeviceTypeModule -->
<g id="edge2" class="edge">
<title>SupabaseModule&#45;&gt;CwDeviceTypeModule</title>
<path fill="none" stroke="black" d="M488.25,-122.11C488.25,-122.11 488.25,-140.99 488.25,-140.99"/>
<polygon fill="black" stroke="black" points="484.75,-140.99 488.25,-150.99 491.75,-140.99 484.75,-140.99"/>
</g>
<!-- CwDeviceTypeService  -->
<g id="node4" class="node">
<title>CwDeviceTypeService </title>
<polygon fill="#fb8072" stroke="black" points="508.83,-252 359.17,-252 359.17,-216 508.83,-216 508.83,-252"/>
<text text-anchor="middle" x="434" y="-229.8" font-family="Times,serif" font-size="14.00">CwDeviceTypeService </text>
</g>
<!-- CwDeviceTypeModule&#45;&gt;CwDeviceTypeService  -->
<g id="edge3" class="edge">
<title>CwDeviceTypeModule&#45;&gt;CwDeviceTypeService </title>
<path fill="none" stroke="black" stroke-dasharray="5,2" d="M434,-187.11C434,-187.11 434,-205.99 434,-205.99"/>
<polygon fill="black" stroke="black" points="430.5,-205.99 434,-215.99 437.5,-205.99 430.5,-205.99"/>
</g>
<!-- CwDeviceTypeService -->
<g id="node5" class="node">
<title>CwDeviceTypeService</title>
<ellipse fill="#fdb462" stroke="black" cx="344" cy="-104" rx="100.68" ry="18"/>
<text text-anchor="middle" x="344" y="-99.8" font-family="Times,serif" font-size="14.00">CwDeviceTypeService</text>
</g>
<!-- CwDeviceTypeService&#45;&gt;CwDeviceTypeModule -->
<g id="edge4" class="edge">
<title>CwDeviceTypeService&#45;&gt;CwDeviceTypeModule</title>
<path fill="none" stroke="black" d="M402.44,-118.75C402.44,-118.75 402.44,-140.59 402.44,-140.59"/>
<polygon fill="black" stroke="black" points="398.94,-140.59 402.44,-150.59 405.94,-140.59 398.94,-140.59"/>
</g>
<!-- DeviceTypeRepository -->
<g id="node6" class="node">
<title>DeviceTypeRepository</title>
<ellipse fill="#fdb462" stroke="black" cx="125" cy="-104" rx="100.7" ry="18"/>
<text text-anchor="middle" x="125" y="-99.8" font-family="Times,serif" font-size="14.00">DeviceTypeRepository</text>
</g>
<!-- DeviceTypeRepository&#45;&gt;CwDeviceTypeModule -->
<g id="edge5" class="edge">
<title>DeviceTypeRepository&#45;&gt;CwDeviceTypeModule</title>
<path fill="none" stroke="black" d="M125,-122.11C125,-141.34 125,-169 125,-169 125,-169 349.99,-169 349.99,-169"/>
<polygon fill="black" stroke="black" points="349.99,-172.5 359.99,-169 349.99,-165.5 349.99,-172.5"/>
</g>
</g>
</svg>
