<?xml version="1.0" encoding="UTF-8" standalone="no"?>
<!DOCTYPE svg PUBLIC "-//W3C//DTD SVG 1.1//EN"
 "http://www.w3.org/Graphics/SVG/1.1/DTD/svg11.dtd">
<!-- Generated by graphviz version 2.47.0 (20210316.0004)
 -->
<!-- Title: dependencies Pages: 1 -->
<svg width="719pt" height="211pt"
 viewBox="0.00 0.00 719.00 211.00" xmlns="http://www.w3.org/2000/svg" xmlns:xlink="http://www.w3.org/1999/xlink">
<g id="graph0" class="graph" transform="scale(1 1) rotate(0) translate(4 207)">
<title>dependencies</title>
<polygon fill="white" stroke="transparent" points="-4,4 -4,-207 715,-207 715,4 -4,4"/>
<text text-anchor="start" x="334.51" y="-42.4" font-family="Times-12" font-weight="bold" font-size="14.00">Legend</text>
<polygon fill="#ffffb3" stroke="transparent" points="121.5,-10 121.5,-30 141.5,-30 141.5,-10 121.5,-10"/>
<text text-anchor="start" x="145.13" y="-15.4" font-family="Times-12" font-size="14.00"> &#160;Declarations</text>
<polygon fill="#8dd3c7" stroke="transparent" points="234.5,-10 234.5,-30 254.5,-30 254.5,-10 234.5,-10"/>
<text text-anchor="start" x="258.23" y="-15.4" font-family="Times-12" font-size="14.00"> &#160;Module</text>
<polygon fill="#80b1d3" stroke="transparent" points="320.5,-10 320.5,-30 340.5,-30 340.5,-10 320.5,-10"/>
<text text-anchor="start" x="344.28" y="-15.4" font-family="Times-12" font-size="14.00"> &#160;Bootstrap</text>
<polygon fill="#fdb462" stroke="transparent" points="417.5,-10 417.5,-30 437.5,-30 437.5,-10 417.5,-10"/>
<text text-anchor="start" x="441.17" y="-15.4" font-family="Times-12" font-size="14.00"> &#160;Providers</text>
<polygon fill="#fb8072" stroke="transparent" points="513.5,-10 513.5,-30 533.5,-30 533.5,-10 513.5,-10"/>
<text text-anchor="start" x="537.23" y="-15.4" font-family="Times-12" font-size="14.00"> &#160;Exports</text>
<g id="clust1" class="cluster">
<title>cluster_CwDeviceTypeModule</title>
<polygon fill="none" stroke="black" stroke-dasharray="1,5" points="8,-70 8,-195 703,-195 703,-70 8,-70"/>
</g>
<g id="clust6" class="cluster">
<title>cluster_CwDeviceTypeModule_providers</title>
<polygon fill="none" stroke="black" points="258,-78 258,-130 695,-130 695,-78 258,-78"/>
</g>
<g id="clust3" class="cluster">
<title>cluster_CwDeviceTypeModule_imports</title>
<polygon fill="none" stroke="black" points="16,-78 16,-130 250,-130 250,-78 16,-78"/>
</g>
<!-- AuthModule -->
<g id="node1" class="node">
<title>AuthModule</title>
<polygon fill="#8dd3c7" stroke="black" points="241.55,-122 238.55,-126 217.55,-126 214.55,-122 154.45,-122 154.45,-86 241.55,-86 241.55,-122"/>
<text text-anchor="middle" x="198" y="-99.8" font-family="Times,serif" font-size="14.00">AuthModule</text>
</g>
<!-- CwDeviceTypeModule -->
<g id="node3" class="node">
<title>CwDeviceTypeModule</title>
<polygon fill="#8dd3c7" stroke="black" points="355.9,-187 352.9,-191 331.9,-191 328.9,-187 208.1,-187 208.1,-151 355.9,-151 355.9,-187"/>
<text text-anchor="middle" x="282" y="-164.8" font-family="Times,serif" font-size="14.00">CwDeviceTypeModule</text>
</g>
<!-- AuthModule&#45;&gt;CwDeviceTypeModule -->
<g id="edge1" class="edge">
<title>AuthModule&#45;&gt;CwDeviceTypeModule</title>
<path fill="none" stroke="black" d="M225.04,-122.11C225.04,-122.11 225.04,-140.99 225.04,-140.99"/>
<polygon fill="black" stroke="black" points="221.54,-140.99 225.04,-150.99 228.54,-140.99 221.54,-140.99"/>
</g>
<!-- SupabaseModule -->
<g id="node2" class="node">
<title>SupabaseModule</title>
<polygon fill="#8dd3c7" stroke="black" points="136.42,-122 133.42,-126 112.42,-126 109.42,-122 23.58,-122 23.58,-86 136.42,-86 136.42,-122"/>
<text text-anchor="middle" x="80" y="-99.8" font-family="Times,serif" font-size="14.00">SupabaseModule</text>
</g>
<!-- SupabaseModule&#45;&gt;CwDeviceTypeModule -->
<g id="edge2" class="edge">
<title>SupabaseModule&#45;&gt;CwDeviceTypeModule</title>
<path fill="none" stroke="black" d="M80,-122.11C80,-141.34 80,-169 80,-169 80,-169 198.22,-169 198.22,-169"/>
<polygon fill="black" stroke="black" points="198.22,-172.5 208.22,-169 198.22,-165.5 198.22,-172.5"/>
</g>
<!-- CwDeviceTypeService -->
<g id="node4" class="node">
<title>CwDeviceTypeService</title>
<ellipse fill="#fdb462" stroke="black" cx="586" cy="-104" rx="100.68" ry="18"/>
<text text-anchor="middle" x="586" y="-99.8" font-family="Times,serif" font-size="14.00">CwDeviceTypeService</text>
</g>
<!-- CwDeviceTypeService&#45;&gt;CwDeviceTypeModule -->
<g id="edge3" class="edge">
<title>CwDeviceTypeService&#45;&gt;CwDeviceTypeModule</title>
<path fill="none" stroke="black" d="M586,-122.11C586,-141.34 586,-169 586,-169 586,-169 365.98,-169 365.98,-169"/>
<polygon fill="black" stroke="black" points="365.98,-165.5 355.98,-169 365.98,-172.5 365.98,-165.5"/>
</g>
<!-- DeviceTypeRepository -->
<g id="node5" class="node">
<title>DeviceTypeRepository</title>
<ellipse fill="#fdb462" stroke="black" cx="367" cy="-104" rx="100.7" ry="18"/>
<text text-anchor="middle" x="367" y="-99.8" font-family="Times,serif" font-size="14.00">DeviceTypeRepository</text>
</g>
<!-- DeviceTypeRepository&#45;&gt;CwDeviceTypeModule -->
<g id="edge4" class="edge">
<title>DeviceTypeRepository&#45;&gt;CwDeviceTypeModule</title>
<path fill="none" stroke="black" d="M311.05,-119.08C311.05,-119.08 311.05,-140.76 311.05,-140.76"/>
<polygon fill="black" stroke="black" points="307.55,-140.76 311.05,-150.76 314.55,-140.76 307.55,-140.76"/>
</g>
</g>
</svg>
