<?xml version="1.0" encoding="UTF-8" standalone="no"?>
<!DOCTYPE svg PUBLIC "-//W3C//DTD SVG 1.1//EN"
 "http://www.w3.org/Graphics/SVG/1.1/DTD/svg11.dtd">
<!-- Generated by graphviz version 2.47.0 (20210316.0004)
 -->
<!-- Title: dependencies Pages: 1 -->
<svg width="510pt" height="211pt"
 viewBox="0.00 0.00 510.00 211.00" xmlns="http://www.w3.org/2000/svg" xmlns:xlink="http://www.w3.org/1999/xlink">
<g id="graph0" class="graph" transform="scale(1 1) rotate(0) translate(4 207)">
<title>dependencies</title>
<polygon fill="white" stroke="transparent" points="-4,4 -4,-207 506,-207 506,4 -4,4"/>
<text text-anchor="start" x="230.01" y="-42.4" font-family="Times-12" font-weight="bold" font-size="14.00">Legend</text>
<polygon fill="#ffffb3" stroke="transparent" points="17,-10 17,-30 37,-30 37,-10 17,-10"/>
<text text-anchor="start" x="40.63" y="-15.4" font-family="Times-12" font-size="14.00"> &#160;Declarations</text>
<polygon fill="#8dd3c7" stroke="transparent" points="130,-10 130,-30 150,-30 150,-10 130,-10"/>
<text text-anchor="start" x="153.73" y="-15.4" font-family="Times-12" font-size="14.00"> &#160;Module</text>
<polygon fill="#80b1d3" stroke="transparent" points="216,-10 216,-30 236,-30 236,-10 216,-10"/>
<text text-anchor="start" x="239.78" y="-15.4" font-family="Times-12" font-size="14.00"> &#160;Bootstrap</text>
<polygon fill="#fdb462" stroke="transparent" points="313,-10 313,-30 333,-30 333,-10 313,-10"/>
<text text-anchor="start" x="336.67" y="-15.4" font-family="Times-12" font-size="14.00"> &#160;Providers</text>
<polygon fill="#fb8072" stroke="transparent" points="409,-10 409,-30 429,-30 429,-10 409,-10"/>
<text text-anchor="start" x="432.73" y="-15.4" font-family="Times-12" font-size="14.00"> &#160;Exports</text>
<g id="clust1" class="cluster">
<title>cluster_ProfilesModule</title>
<polygon fill="none" stroke="black" stroke-dasharray="1,5" points="8,-70 8,-195 494,-195 494,-70 8,-70"/>
</g>
<g id="clust3" class="cluster">
<title>cluster_ProfilesModule_imports</title>
<polygon fill="none" stroke="black" points="358,-78 358,-130 486,-130 486,-78 358,-78"/>
</g>
<g id="clust6" class="cluster">
<title>cluster_ProfilesModule_providers</title>
<polygon fill="none" stroke="black" points="16,-78 16,-130 350,-130 350,-78 16,-78"/>
</g>
<!-- SupabaseModule -->
<g id="node1" class="node">
<title>SupabaseModule</title>
<polygon fill="#8dd3c7" stroke="black" points="478.42,-122 475.42,-126 454.42,-126 451.42,-122 365.58,-122 365.58,-86 478.42,-86 478.42,-122"/>
<text text-anchor="middle" x="422" y="-99.8" font-family="Times,serif" font-size="14.00">SupabaseModule</text>
</g>
<!-- ProfilesModule -->
<g id="node2" class="node">
<title>ProfilesModule</title>
<polygon fill="#8dd3c7" stroke="black" points="313.59,-187 310.59,-191 289.59,-191 286.59,-187 210.41,-187 210.41,-151 313.59,-151 313.59,-187"/>
<text text-anchor="middle" x="262" y="-164.8" font-family="Times,serif" font-size="14.00">ProfilesModule</text>
</g>
<!-- SupabaseModule&#45;&gt;ProfilesModule -->
<g id="edge1" class="edge">
<title>SupabaseModule&#45;&gt;ProfilesModule</title>
<path fill="none" stroke="black" d="M422,-122.11C422,-141.34 422,-169 422,-169 422,-169 323.95,-169 323.95,-169"/>
<polygon fill="black" stroke="black" points="323.95,-165.5 313.95,-169 323.95,-172.5 323.95,-165.5"/>
</g>
<!-- ProfileRepository -->
<g id="node3" class="node">
<title>ProfileRepository</title>
<ellipse fill="#fdb462" stroke="black" cx="262" cy="-104" rx="79.89" ry="18"/>
<text text-anchor="middle" x="262" y="-99.8" font-family="Times,serif" font-size="14.00">ProfileRepository</text>
</g>
<!-- ProfileRepository&#45;&gt;ProfilesModule -->
<g id="edge2" class="edge">
<title>ProfileRepository&#45;&gt;ProfilesModule</title>
<path fill="none" stroke="black" d="M262,-122.11C262,-122.11 262,-140.99 262,-140.99"/>
<polygon fill="black" stroke="black" points="258.5,-140.99 262,-150.99 265.5,-140.99 258.5,-140.99"/>
</g>
<!-- ProfilesService -->
<g id="node4" class="node">
<title>ProfilesService</title>
<ellipse fill="#fdb462" stroke="black" cx="94" cy="-104" rx="70.06" ry="18"/>
<text text-anchor="middle" x="94" y="-99.8" font-family="Times,serif" font-size="14.00">ProfilesService</text>
</g>
<!-- ProfilesService&#45;&gt;ProfilesModule -->
<g id="edge3" class="edge">
<title>ProfilesService&#45;&gt;ProfilesModule</title>
<path fill="none" stroke="black" d="M94,-122.11C94,-141.34 94,-169 94,-169 94,-169 200.22,-169 200.22,-169"/>
<polygon fill="black" stroke="black" points="200.22,-172.5 210.22,-169 200.22,-165.5 200.22,-172.5"/>
</g>
</g>
</svg>
