<?xml version="1.0" encoding="UTF-8" standalone="no"?>
<!DOCTYPE svg PUBLIC "-//W3C//DTD SVG 1.1//EN"
 "http://www.w3.org/Graphics/SVG/1.1/DTD/svg11.dtd">
<!-- Generated by graphviz version 2.47.0 (20210316.0004)
 -->
<!-- Title: dependencies Pages: 1 -->
<svg width="510pt" height="211pt"
 viewBox="0.00 0.00 510.00 211.00" xmlns="http://www.w3.org/2000/svg" xmlns:xlink="http://www.w3.org/1999/xlink">
<g id="graph0" class="graph" transform="scale(1 1) rotate(0) translate(4 207)">
<title>dependencies</title>
<polygon fill="white" stroke="transparent" points="-4,4 -4,-207 506,-207 506,4 -4,4"/>
<text text-anchor="start" x="230.01" y="-42.4" font-family="Times-12" font-weight="bold" font-size="14.00">Legend</text>
<polygon fill="#ffffb3" stroke="transparent" points="17,-10 17,-30 37,-30 37,-10 17,-10"/>
<text text-anchor="start" x="40.63" y="-15.4" font-family="Times-12" font-size="14.00"> &#160;Declarations</text>
<polygon fill="#8dd3c7" stroke="transparent" points="130,-10 130,-30 150,-30 150,-10 130,-10"/>
<text text-anchor="start" x="153.73" y="-15.4" font-family="Times-12" font-size="14.00"> &#160;Module</text>
<polygon fill="#80b1d3" stroke="transparent" points="216,-10 216,-30 236,-30 236,-10 216,-10"/>
<text text-anchor="start" x="239.78" y="-15.4" font-family="Times-12" font-size="14.00"> &#160;Bootstrap</text>
<polygon fill="#fdb462" stroke="transparent" points="313,-10 313,-30 333,-30 333,-10 313,-10"/>
<text text-anchor="start" x="336.67" y="-15.4" font-family="Times-12" font-size="14.00"> &#160;Providers</text>
<polygon fill="#fb8072" stroke="transparent" points="409,-10 409,-30 429,-30 429,-10 409,-10"/>
<text text-anchor="start" x="432.73" y="-15.4" font-family="Times-12" font-size="14.00"> &#160;Exports</text>
<g id="clust1" class="cluster">
<title>cluster_ProfilesModule</title>
<polygon fill="none" stroke="black" stroke-dasharray="1,5" points="8,-70 8,-195 494,-195 494,-70 8,-70"/>
</g>
<g id="clust6" class="cluster">
<title>cluster_ProfilesModule_providers</title>
<polygon fill="none" stroke="black" points="152,-78 152,-130 486,-130 486,-78 152,-78"/>
</g>
<g id="clust3" class="cluster">
<title>cluster_ProfilesModule_imports</title>
<polygon fill="none" stroke="black" points="16,-78 16,-130 144,-130 144,-78 16,-78"/>
</g>
<!-- SupabaseModule -->
<g id="node1" class="node">
<title>SupabaseModule</title>
<polygon fill="#8dd3c7" stroke="black" points="136.42,-122 133.42,-126 112.42,-126 109.42,-122 23.58,-122 23.58,-86 136.42,-86 136.42,-122"/>
<text text-anchor="middle" x="80" y="-99.8" font-family="Times,serif" font-size="14.00">SupabaseModule</text>
</g>
<!-- ProfilesModule -->
<g id="node2" class="node">
<title>ProfilesModule</title>
<polygon fill="#8dd3c7" stroke="black" points="281.59,-187 278.59,-191 257.59,-191 254.59,-187 178.41,-187 178.41,-151 281.59,-151 281.59,-187"/>
<text text-anchor="middle" x="230" y="-164.8" font-family="Times,serif" font-size="14.00">ProfilesModule</text>
</g>
<!-- SupabaseModule&#45;&gt;ProfilesModule -->
<g id="edge1" class="edge">
<title>SupabaseModule&#45;&gt;ProfilesModule</title>
<path fill="none" stroke="black" d="M80,-122.11C80,-141.34 80,-169 80,-169 80,-169 168.38,-169 168.38,-169"/>
<polygon fill="black" stroke="black" points="168.38,-172.5 178.38,-169 168.38,-165.5 168.38,-172.5"/>
</g>
<!-- ProfileRepository -->
<g id="node3" class="node">
<title>ProfileRepository</title>
<ellipse fill="#fdb462" stroke="black" cx="398" cy="-104" rx="79.89" ry="18"/>
<text text-anchor="middle" x="398" y="-99.8" font-family="Times,serif" font-size="14.00">ProfileRepository</text>
</g>
<!-- ProfileRepository&#45;&gt;ProfilesModule -->
<g id="edge2" class="edge">
<title>ProfileRepository&#45;&gt;ProfilesModule</title>
<path fill="none" stroke="black" d="M398,-122.11C398,-141.34 398,-169 398,-169 398,-169 291.78,-169 291.78,-169"/>
<polygon fill="black" stroke="black" points="291.78,-165.5 281.78,-169 291.78,-172.5 291.78,-165.5"/>
</g>
<!-- ProfilesService -->
<g id="node4" class="node">
<title>ProfilesService</title>
<ellipse fill="#fdb462" stroke="black" cx="230" cy="-104" rx="70.06" ry="18"/>
<text text-anchor="middle" x="230" y="-99.8" font-family="Times,serif" font-size="14.00">ProfilesService</text>
</g>
<!-- ProfilesService&#45;&gt;ProfilesModule -->
<g id="edge3" class="edge">
<title>ProfilesService&#45;&gt;ProfilesModule</title>
<path fill="none" stroke="black" d="M230,-122.11C230,-122.11 230,-140.99 230,-140.99"/>
<polygon fill="black" stroke="black" points="226.5,-140.99 230,-150.99 233.5,-140.99 226.5,-140.99"/>
</g>
</g>
</svg>
